<?xml version="1.0" standalone="no"?>
<!DOCTYPE svg PUBLIC "-//W3C//DTD SVG 1.1//EN" "http://www.w3.org/Graphics/SVG/1.1/DTD/svg11.dtd" >
<svg xmlns="http://www.w3.org/2000/svg">
<defs>
  <font id="icons" horiz-adv-x="300">
    <font-face font-family="icons"
      units-per-em="300" ascent="300"
      descent="0" />
    <missing-glyph horiz-adv-x="0" />
    <glyph glyph-name="2dmap"
      unicode="&#xF101;"
      horiz-adv-x="300" d="M266.5625 245.46875H34.4375C19.453125 245.46875 7.25 233.28125 7.25 218.28125V82.703125C7.25 67.71875 19.4375 55.515625 34.4375 55.515625H266.5625C281.546875 55.515625 293.75 67.703125 293.75 82.703125V218.296875C293.75 233.28125 281.5625 245.484375 266.5625 245.484375zM268.75 218.28125V191.15625H228.375V220.46875H266.5625C267.765625 220.46875 268.75 219.484375 268.75 218.28125zM95.625 166.15625H137V134.828125H95.625V166.15625zM70.625 134.828125H32.265625V166.15625H70.625V134.828125zM137 191.15625H95.625V220.46875H137V191.15625zM162 220.46875H203.375V191.15625H162V220.46875zM137 109.84375V80.53125H95.625V109.84375H137zM162 109.84375H203.375V80.53125H162V109.84375zM162 134.84375V166.171875H203.375V134.84375H162zM228.375 166.171875H268.75V134.84375H228.375V166.171875zM34.4375 220.46875H70.625V191.15625H32.265625V218.28125C32.265625 219.484375 33.25 220.46875 34.453125 220.46875zM32.25 82.703125V109.828125H70.609375V80.515625H34.421875C33.21875 80.515625 32.234375 81.5 32.234375 82.703125zM266.5625000000001 80.515625H228.3750000000001V109.828125H268.7500000000001V82.703125C268.7500000000001 81.5 267.7656250000001 80.515625 266.5625000000001 80.515625z" />
    <glyph glyph-name="3dmap"
      unicode="&#xF102;"
      horiz-adv-x="300" d="M150.5625 296.75C69.03125 296.75 2.6875 230.40625 2.6875 148.875S69.015625 1 150.5625 1S298.4375 67.328125 298.4375 148.875S232.09375 296.75 150.5625 296.75zM136.9375 212.578125C126.5625 213.546875 116.921875 215.515625 108.046875 218.140625C112.328125 226.359375 117.390625 234.3125 123.3125 241.96875C127.953125 247.96875 132.625 253.125 136.9375 257.4375V212.578125zM136.9375 187.46875V161.359375H91.9375C92.796875 172.921875 94.96875 184.109375 98.390625 194.921875C110.0625 191.265625 122.921875 188.59375 136.9375 187.46875zM136.9375 136.359375V110.40625C123.03125 109.46875 110.234375 106.984375 98.59375 103.53125C95.421875 113.53125 93.109375 124.484375 92.09375 136.359375H136.9375zM136.9375 85.34375V40.53125C127.78125 49.875 116.9375 63.15625 108.140625 80.328125C117.46875 82.90625 127.0625 84.578125 136.9375 85.328125zM161.9375 85.296875C172.0625 84.453125 181.484375 82.625 190.203125 80.125C185.859375 71.703125 180.71875 63.5625 174.703125 55.734375C170.359375 50.09375 166 45.1875 161.953125 41.0312500000001V85.2968750000001zM161.9375 110.375V136.359375H206.328125C205.375 125 203.1875 114 199.8125 103.375C188.296875 106.875 175.671875 109.390625 161.9375 110.375zM161.9375 161.359375V187.203125C175.859375 188.015625 188.671875 190.421875 200.34375 193.84375C203.578125 183.375 205.625 172.546875 206.453125 161.375H161.9375zM161.9375 212.25V256.9375C166.109375 252.7187500000001 170.609375 247.7187500000001 175.078125 241.953125C181.234375 234 186.484375 225.71875 190.859375 217.140625C181.953125 214.703125 172.3125 212.96875 161.953125 212.25zM187.828125 265.9375C205.8125 260.203125 221.984375 250.421875 235.3281250000001 237.6875000000001C229.234375 233.578125 222.296875 229.5156250000001 214.53125 225.875C206.625 242.125 196.984375 255.46875 187.828125 265.9375zM84.546875 227.28125C77.703125 230.625 71.53125 234.25 66.046875 237.921875C78.375 249.6250000000001 93.109375 258.8125 109.421875 264.625C100.859375 254.671875 91.984375 242.234375 84.53125 227.28125zM75.03125 204.109375C70.828125 191.25 67.875 177 66.875 161.359375H28.3125C30.46875 182.578125 38.0625 202.1875 49.640625 218.84375C56.984375 213.765625 65.453125 208.6875 75.03125 204.109375zM67 136.359375C68.09375 121.15625 71 107.265625 75.078125 94.6875C65.1875 90.140625 56.453125 85.03125 48.921875 79.9218750000001C37.75 96.34375 30.4375 115.5937500000001 28.34375 136.3593750000001H67.015625zM84.4375 71.546875C92.046875 56.03125 101.15625 43.15625 109.890625 32.9375C92.96875 38.890625 77.734375 48.453125 65.09375 60.703125C71.359375 64.828125 77.8125 68.4375 84.421875 71.546875zM213.765625 71.1406250000001C221.46875 67.4218750000001 228.3437500000001 63.3125000000001 234.390625 59.140625C221.109375 46.734375 205.109375 37.2031250000001 187.375 31.625C196.375 41.96875 205.859375 55.125 213.765625 71.140625zM223.21875 94.3593750000001C227.34375 107.0312500000001 230.2968750000001 121.0312500000001 231.4062500000001 136.3750000000001H272.8125000000001C270.625 114.8281250000001 262.8125 94.9218750000001 250.9218750000001 78.1093750000001C243.0000000000001 83.7656250000001 233.7500000000001 89.4062500000001 223.2187500000001 94.3750000000001zM231.5156250000001 161.3750000000001C230.5625 176.4218750000001 227.7968750000001 190.1718750000001 223.84375 202.6406250000001C234.4375000000001 207.5000000000001 243.7187500000001 213.0468750000001 251.6718750000001 218.5937500000001C263.1406250000001 202.0000000000001 270.671875 182.4843750000001 272.8125000000001 161.3750000000001H231.5156250000001z" />
    <glyph glyph-name="airplane"
      unicode="&#xF103;"
      horiz-adv-x="300" d="M296.875 150C296.875 137 286.90625 127.703125 274.578125 127.703125C274.578125 127.703125 240.21875 125.8125 210.796875 124.71875L147.90625 25.46875C146.46875 23.2031250000001 143.96875 21.828125 141.28125 21.828125H107.25C104.984375 21.828125 103.46875 24.171875 104.390625 26.234375L148.21875 124.5C117.90625 125.359375 81.546875 127.046875 69.90625 127.5625C67.75 127.65625 65.65625 126.859375 64.109375 125.34375L40.953125 102.8125C39.484375 101.390625 37.53125 100.59375 35.484375 100.59375H6.265625C4.21875 100.59375 2.71875 102.53125 3.234375 104.515625L14.921875 149.296875C15.28125 150.640625 15.265625 152.0625 14.875 153.40625L3.328125 194.3125C2.765625 196.3125 4.265625 198.296875 6.34375 198.296875H35.578125C37.5625 198.296875 39.46875 197.546875 40.921875 196.1875L64.125 174.53125C65.65625 173.09375 67.703125 172.34375 69.796875 172.4375C81.3125 172.9375 117.796875 174.640625 148.203125 175.5L104.375 273.765625C103.453125 275.84375 104.96875 278.171875 107.234375 278.171875H141.265625C143.953125 278.171875 146.453125 276.796875 147.890625 274.53125L210.78125 175.28125C240.2031250000001 174.1875 274.5625 172.296875 274.5625 172.296875C286.875 172.296875 296.859375 163.015625 296.859375 150z" />
    <glyph glyph-name="ambulance"
      unicode="&#xF104;"
      horiz-adv-x="300" d="M45.5625 50.71875A27.171875 27.171875 0 0 1 99.90625 50.71875A27.171875 27.171875 0 0 1 45.5625 50.71875M194.984375 50.71875A27.171875 27.171875 0 0 1 249.328125 50.71875A27.171875 27.171875 0 0 1 194.984375 50.71875M293.125 114.375L268.84375 130.75C268.234375 131.15625 267.78125 131.75 267.53125 132.4375L247.9375 203.328125C246.734375 206.71875 243.546875 208.984375 239.9375 208.984375H11.609375C6.921875 208.984375 3.125 205.1875 3.125 200.5V59.21875C3.125 54.53125 6.921875 50.734375 11.609375 50.734375H32.828125C32.828125 72.765625 50.6875 90.640625 72.734375 90.640625S112.640625 72.78125 112.640625 50.734375H181.40625C181.40625 73.234375 199.65625 91.484375 222.15625 91.484375S262.90625 73.234375 262.90625 50.7343750000001H288.375C293.0625 50.7343750000001 296.859375 54.5312500000001 296.859375 59.2187500000001V107.3437500000001C296.859375 110.1562500000001 295.453125 112.8125000000001 293.109375 114.3906250000001zM124.53125 143.15625C124.53125 141.28125 123 139.765625 121.140625 139.765625H103.3125V121.9375C103.3125 120.0625 101.78125 118.546875 99.921875 118.546875H81.25C79.375 118.546875 77.859375 120.078125 77.859375 121.9375V139.765625H60.03125C58.15625 139.765625 56.640625 141.296875 56.640625 143.15625V161.828125C56.640625 163.703125 58.171875 165.21875 60.03125 165.21875H77.859375V183.046875C77.859375 184.921875 79.390625 186.4375 81.25 186.4375H99.921875C101.796875 186.4375 103.3125 184.90625 103.3125 183.046875V165.21875H121.140625C123.015625 165.21875 124.53125 163.6875 124.53125 161.828125V143.15625zM244.71875 128.8125H189.90625C188.03125 128.8125 186.515625 130.328125 186.515625 132.203125V188.71875C186.515625 190.59375 188.03125 192.109375 189.90625 192.109375H226.2343750000001C229.9531250000001 192.109375 233.2343750000001 189.6875 234.3437500000001 186.140625L247.9687500000001 133.21875C248.6406250000001 131.03125 247.015625 128.8125 244.71875 128.8125zM170 240.015625H207.5A3.125 3.125 0 0 0 210.625 236.890625V221.265625A3.125 3.125 0 0 0 207.5 218.140625H170A3.125 3.125 0 0 0 166.875 221.265625V236.890625A3.125 3.125 0 0 0 170 240.015625zM188.75 248.328125C185.296875 248.328125 182.5 251.125 182.5 254.578125V270.203125C182.5 273.65625 185.296875 276.453125 188.75 276.453125S195 273.65625 195 270.203125V254.578125C195 251.125 192.203125 248.328125 188.75 248.328125zM153.3125 231.921875C152.25 231.921875 151.171875 232.1875 150.1875 232.765625L136.65625 240.578125C133.671875 242.296875 132.640625 246.125 134.375 249.109375C136.09375 252.09375 139.921875 253.125 142.90625 251.390625L156.4375 243.578125C159.421875 241.859375 160.453125 238.03125 158.71875 235.046875C157.5625 233.046875 155.46875 231.921875 153.296875 231.921875zM224.171875 231.921875C222.015625 231.921875 219.90625 233.046875 218.75 235.046875C217.03125 238.03125 218.046875 241.859375 221.03125 243.578125L234.5625 251.390625C237.546875 253.109375 241.3750000000001 252.09375 243.0937500000001 249.109375C244.8125 246.125 243.796875 242.296875 240.8125 240.578125L227.28125 232.765625C226.2968750000001 232.203125 225.2187500000001 231.921875 224.15625 231.921875z" />
    <glyph glyph-name="anchor"
      unicode="&#xF105;"
      horiz-adv-x="300" d="M291.40625 116.234375L279.296875 166.703125C278.734375 169.0625 275.84375 169.921875 274.078125 168.265625L237.203125 133.453125C235.140625 131.484375 236.53125 128.015625 239.359375 128.015625H250.265625C252.234375 128.015625 253.71875 126.234375 253.375 124.296875C247.484375 92.125 214.09375 66.3125 170.96875 59.78125C169.125 59.5 167.46875 60.921875 167.390625 62.78125L163.84375 165.765625H192.265625C196.609375 165.765625 200.125 169.28125 200.125 173.625V186.953125C200.125 191.296875 196.609375 194.8125 192.265625 194.8125H162.84375L162.265625 211.6875C180.953125 217.328125 194.328125 235.1875 193.109375 255.96875C191.78125 278.46875 173 296.46875 150.453125 296.859375C126.046875 297.296875 106.125 277.640625 106.125 253.34375C106.125 233.6875 119.125 217.09375 137.03125 211.6875L136.453125 194.8125H107.03125C102.6875 194.8125 99.171875 191.296875 99.171875 186.953125V173.625C99.171875 169.28125 102.6875 165.765625 107.03125 165.765625H135.453125L131.90625 62.7499999999999C131.84375 60.8906249999999 130.1875 59.46875 128.34375 59.75C85.140625 66.2187499999999 51.65625 92.0625 45.765625 124.28125C45.40625 126.21875 46.90625 128 48.875 128H60.65625C63.484375 128 64.859375 131.46875 62.8125 133.4375L25.9375 168.25C24.171875 169.921875 21.28125 169.046875 20.71875 166.6875L8.609375 116.21875C7.921875 113.3125 11.296875 111.15625 13.640625 113.03125L23.28125 120.765625C25.25 122.34375 28.15625 121.0625 28.375 118.546875C32.5 71.40625 71.953125 32.8749999999999 123.71875 23.078125C124.40625 22.9531249999999 125.078125 22.7499999999999 125.703125 22.4375C135.15625 17.75 143.609375 8.703125 147.453125 4.203125C148.640625 2.8125 150.765625 2.734375 152.0625 4.046875C156.359375 8.421875 165.609375 17.40625 173.40625 22.21875C174.171875 22.703125 175.046875 23 175.9375 23.171875C227.6875 33.140625 267.046875 71.890625 270.828125 119.1875C271.03125 121.71875 273.9375 123.03125 275.921875 121.4375L286.40625 113.03125C288.75 111.15625 292.125 113.3125 291.4375 116.21875zM129.046875 255.671875C130.078125 265.171875 137.75 272.875 147.25 273.953125C159.765625 275.375 170.390625 265.609375 170.390625 253.359375C170.390625 241.90625 161.109375 232.625 149.671875 232.625C137.453125 232.625 127.703125 243.1875 129.0625 255.6875z" />
    <glyph glyph-name="announce"
      unicode="&#xF106;"
      horiz-adv-x="300" d="M81.5 105.609375L8.921875 115.046875C6.140625 115.40625 4.046875 117.953125 4.046875 120.984375V193.09375C4.046875 196.125 6.140625 198.671875 8.921875 199.03125L81.5 208.46875C84.796875 208.890625 87.6875 206.109375 87.6875 202.53125V111.53125C87.6875 107.9375 84.78125 105.15625 81.5 105.59375zM185.515625 35.5625L99.375 103C97.921875 104.140625 97.0625 105.953125 97.0625 107.890625V206.21875C97.0625 208.15625 97.921875 209.984375 99.375 211.109375L185.515625 278.546875C189.203125 281.4375 194.375 278.578125 194.375 273.65625V40.453125C194.375 35.515625 189.203125 32.671875 185.515625 35.5625zM57.890625 20.28125H22.984375C19.21875 20.28125 16.53125 24.25 17.671875 28.140625L38.40625 98.625C39.234375 101.421875 41.8125 103.171875 44.5 102.765625L77.140625 97.71875C80.53125 97.203125 82.671875 93.53125 81.6875 90L63.21875 24.5625000000001C62.5 22.0312500000001 60.34375 20.2968750000001 57.890625 20.2968750000001zM235 157.0625C235 120.140625 218.328125 106.046875 209.703125 101.21875C207.453125 99.953125 204.6875 101.578125 204.6875 104.171875V209.53125C204.6875 212.203125 207.625 213.828125 209.859375 212.390625C218.515625 206.84375 235 191.71875 235 157.0625zM283.4375 143.53125H258.4375C251.5312500000001 143.53125 245.9375 149.578125 245.9375 157.046875S251.5312500000001 170.5625 258.4375 170.5625H283.4375C290.34375 170.5625 295.9375 164.515625 295.9375 157.046875S290.34375 143.53125 283.4375 143.53125zM248.203125 193.234375C244.265625 193.234375 240.390625 195.25 237.953125 199C234 205.109375 235.375 213.546875 241.015625 217.828125L261.5 233.34375C267.15625 237.625 274.9531250000001 236.140625 278.90625 230.03125C282.859375 223.921875 281.484375 215.484375 275.84375 211.203125L255.359375 195.6875C253.171875 194.03125 250.671875 193.234375 248.203125 193.234375zM268.671875 78.328125C266.203125 78.328125 263.6875 79.125 261.515625 80.78125L241.03125 96.296875C235.375 100.578125 234 109.015625 237.96875 115.125C241.921875 121.234375 249.71875 122.734375 255.375 118.4375L275.859375 102.921875C281.515625 98.640625 282.890625 90.203125 278.9218750000001 84.09375C276.484375 80.34375 272.6093750000001 78.328125 268.671875 78.328125z" />
    <glyph glyph-name="bell"
      unicode="&#xF107;"
      horiz-adv-x="300" d="M260.625 43.703125H39.375C33.515625 43.703125 29.75 49.90625 32.4375 55.109375L51.75 92.40625V173.0625C51.75 220.28125 85.59375 259.578125 130.34375 268.046875V277.53125C130.34375 288.21875 139.015625 296.8750000000001 149.6875 296.8750000000001H150.3125C160.984375 296.8750000000001 169.65625 288.2187500000001 169.65625 277.53125V268.046875C214.40625 259.578125 248.25 220.28125 248.25 173.0625V92.40625L267.5625 55.109375C270.25 49.90625 266.484375 43.703125 260.625 43.703125zM150 31.703125H178.578125C178.578125 16.03125 165.671875 3.125 150 3.125S121.421875 16.03125 121.421875 31.703125H150z" />
    <glyph glyph-name="brush"
      unicode="&#xF108;"
      horiz-adv-x="300" d="M181.859375 125.453125L135.78125 155.046875L234.65625 292.328125C239.546875 299.109375 249.9218750000001 300.265625 258.203125 294.953125H258.203125C266.484375 289.625 269.75 279.71875 265.609375 272.453125L181.859375 125.46875zM153.28125 73.734375L100.625 107.5625L128.703125 144.03125L174.765625 114.4375L153.28125 73.734375zM145.953125 62.34375L93.296875 96.171875S74.953125 95.59375 64.578125 78.515625C55.78125 64.03125 57.96875 42.84375 55.25 33.28125C51.75 21 32.78125 7.6875 32.78125 7.6875C32.78125 7.6875 57.203125 3.640625 73.109375 2.46875C91.546875 1.109375 106.296875 1.453125 120.046875 7.7187500000001C134.65625 14.375 140.9375 19.2968750000001 146.25 32.6093750000001C152.875 49.1875 145.953125 62.3437500000001 145.953125 62.3437500000001z" />
    <glyph glyph-name="building"
      unicode="&#xF109;"
      horiz-adv-x="300" d="M295.546875 23.4375H260.15625V218.609375C260.15625 222.25 258.046875 225.5625 254.75 227.109375L186 271.484375C179.78125 274.390625 172.65625 269.84375 172.65625 262.984375V23.4375H146.09375V286.3125C146.09375 292.671875 139.875 297.171875 133.84375 295.1875L43.140625 248.203125C39.3125 246.9375 36.71875 243.375 36.71875 239.34375V23.4375H4.453125C2.859375 23.4375 1.5625 22.140625 1.5625 20.546875V4.453125C1.5625 2.859375 2.859375 1.5625 4.453125 1.5625H295.546875C297.140625 1.5625 298.4375 2.859375 298.4375 4.453125V20.546875C298.4375 22.140625 297.140625 23.4375 295.546875 23.4375zM205.46875 217.65625C205.46875 220.859375 208.046875 223.4375 211.25 223.4375H223.125C226.328125 223.4375 228.90625 220.859375 228.90625 217.65625V205.78125C228.90625 202.578125 226.328125 200 223.125 200H211.25C208.046875 200 205.46875 202.578125 205.46875 205.78125V217.65625zM205.46875 177.03125C205.46875 180.234375 208.046875 182.8125 211.25 182.8125H223.125C226.328125 182.8125 228.90625 180.234375 228.90625 177.03125V165.15625C228.90625 161.953125 226.328125 159.375 223.125 159.375H211.25C208.046875 159.375 205.46875 161.953125 205.46875 165.15625V177.03125zM205.46875 136.40625C205.46875 139.609375 208.046875 142.1875 211.25 142.1875H223.125C226.328125 142.1875 228.90625 139.609375 228.90625 136.40625V124.53125C228.90625 121.328125 226.328125 118.75 223.125 118.75H211.25C208.046875 118.75 205.46875 121.328125 205.46875 124.53125V136.40625zM205.46875 95.78125C205.46875 98.984375 208.046875 101.5625 211.25 101.5625H223.125C226.328125 101.5625 228.90625 98.984375 228.90625 95.78125V83.90625C228.90625 80.703125 226.328125 78.1250000000001 223.125 78.1250000000001H211.25C208.046875 78.1250000000001 205.46875 80.7031250000001 205.46875 83.90625V95.78125zM205.46875 55.15625C205.46875 58.359375 208.046875 60.9375 211.25 60.9375H223.125C226.328125 60.9375 228.90625 58.359375 228.90625 55.15625V43.28125C228.90625 40.078125 226.328125 37.5000000000001 223.125 37.5000000000001H211.25C208.046875 37.5000000000001 205.46875 40.0781250000001 205.46875 43.28125V55.15625zM103.90625 258.28125C103.90625 261.484375 106.484375 264.0625 109.6875 264.0625H121.5625C124.765625 264.0625 127.34375 261.484375 127.34375 258.28125V246.40625C127.34375 243.203125 124.765625 240.625 121.5625 240.625H109.6875C106.484375 240.625 103.90625 243.203125 103.90625 246.40625V258.28125zM103.90625 217.65625C103.90625 220.859375 106.484375 223.4375 109.6875 223.4375H121.5625C124.765625 223.4375 127.34375 220.859375 127.34375 217.65625V205.78125C127.34375 202.578125 124.765625 200 121.5625 200H109.6875C106.484375 200 103.90625 202.578125 103.90625 205.78125V217.65625zM103.90625 177.03125C103.90625 180.234375 106.484375 182.8125 109.6875 182.8125H121.5625C124.765625 182.8125 127.34375 180.234375 127.34375 177.03125V165.15625C127.34375 161.953125 124.765625 159.375 121.5625 159.375H109.6875C106.484375 159.375 103.90625 161.953125 103.90625 165.15625V177.03125zM103.90625 136.40625C103.90625 139.609375 106.484375 142.1875 109.6875 142.1875H121.5625C124.765625 142.1875 127.34375 139.609375 127.34375 136.40625V124.53125C127.34375 121.328125 124.765625 118.75 121.5625 118.75H109.6875C106.484375 118.75 103.90625 121.328125 103.90625 124.53125V136.40625zM103.90625 95.78125C103.90625 98.984375 106.484375 101.5625 109.6875 101.5625H121.5625C124.765625 101.5625 127.34375 98.984375 127.34375 95.78125V83.90625C127.34375 80.703125 124.765625 78.1250000000001 121.5625 78.1250000000001H109.6875C106.484375 78.1250000000001 103.90625 80.7031250000001 103.90625 83.90625V95.78125zM103.90625 55.15625C103.90625 58.359375 106.484375 60.9375 109.6875 60.9375H121.5625C124.765625 60.9375 127.34375 58.359375 127.34375 55.15625V43.28125C127.34375 40.078125 124.765625 37.5000000000001 121.5625 37.5000000000001H109.6875C106.484375 37.5000000000001 103.90625 40.0781250000001 103.90625 43.28125V55.15625zM55.46875 217.65625C55.46875 220.859375 58.046875 223.4375 61.25 223.4375H73.125C76.328125 223.4375 78.90625 220.859375 78.90625 217.65625V205.78125C78.90625 202.578125 76.328125 200 73.125 200H61.25C58.046875 200 55.46875 202.578125 55.46875 205.78125V217.65625zM55.46875 177.03125C55.46875 180.234375 58.046875 182.8125 61.25 182.8125H73.125C76.328125 182.8125 78.90625 180.234375 78.90625 177.03125V165.15625C78.90625 161.953125 76.328125 159.375 73.125 159.375H61.25C58.046875 159.375 55.46875 161.953125 55.46875 165.15625V177.03125zM55.46875 136.40625C55.46875 139.609375 58.046875 142.1875 61.25 142.1875H73.125C76.328125 142.1875 78.90625 139.609375 78.90625 136.40625V124.53125C78.90625 121.328125 76.328125 118.75 73.125 118.75H61.25C58.046875 118.75 55.46875 121.328125 55.46875 124.53125V136.40625zM55.46875 95.78125C55.46875 98.984375 58.046875 101.5625 61.25 101.5625H73.125C76.328125 101.5625 78.90625 98.984375 78.90625 95.78125V83.90625C78.90625 80.703125 76.328125 78.1250000000001 73.125 78.1250000000001H61.25C58.046875 78.1250000000001 55.46875 80.7031250000001 55.46875 83.90625V95.78125zM55.46875 55.15625C55.46875 58.359375 58.046875 60.9375 61.25 60.9375H73.125C76.328125 60.9375 78.90625 58.359375 78.90625 55.15625V43.28125C78.90625 40.078125 76.328125 37.5000000000001 73.125 37.5000000000001H61.25C58.046875 37.5000000000001 55.46875 40.0781250000001 55.46875 43.28125V55.15625z" />
    <glyph glyph-name="calendar"
      unicode="&#xF10A;"
      horiz-adv-x="300" d="M80 175.796875H51.875C51.015625 175.796875 50.3125 175.09375 50.3125 174.234375V146.109375C50.3125 145.25 51.015625 144.546875 51.875 144.546875H80C80.859375 144.546875 81.5625 145.25 81.5625 146.109375V174.234375C81.5625 175.09375 80.859375 175.796875 80 175.796875H80zM80 125.203125H51.875C51.015625 125.203125 50.3125 124.5 50.3125 123.640625V95.515625C50.3125 94.65625 51.015625 93.953125 51.875 93.953125H80C80.859375 93.953125 81.5625 94.65625 81.5625 95.515625V123.640625C81.5625 124.5 80.859375 125.203125 80 125.203125H80zM135.9375 125.203125H107.8125C106.953125 125.203125 106.25 124.5 106.25 123.640625V95.515625C106.25 94.65625 106.953125 93.953125 107.8125 93.953125H135.9375C136.796875 93.953125 137.5 94.65625 137.5 95.515625V123.640625C137.5 124.5 136.796875 125.203125 135.9375 125.203125H135.9375zM135.9375 175.796875H107.8125C106.953125 175.796875 106.25 175.09375 106.25 174.234375V146.109375C106.25 145.25 106.953125 144.546875 107.8125 144.546875H135.9375C136.796875 144.546875 137.5 145.25 137.5 146.109375V174.234375C137.5 175.09375 136.796875 175.796875 135.9375 175.796875H135.9375zM191.875 175.796875H163.75C162.890625 175.796875 162.1875 175.09375 162.1875 174.234375V146.109375C162.1875 145.25 162.890625 144.546875 163.75 144.546875H191.875C192.734375 144.546875 193.4375 145.25 193.4375 146.109375V174.234375C193.4375 175.09375 192.734375 175.796875 191.875 175.796875H191.875zM83.859375 236.359375C83.984375 236.65625 84.109375 236.9375 84.21875 237.234375C84.125 236.9375 84 236.65625 83.875 236.359375H83.875zM84.21875 237.234375C84.453125 237.828125 84.640625 238.4375 84.8125 239.0625C84.65625 238.4375 84.46875 237.828125 84.21875 237.234375zM158.9375 239.0625C159.109375 238.4375 159.296875 237.828125 159.53125 237.234375C159.28125 237.828125 159.09375 238.4375 158.9375 239.0625zM159.890625 236.359375H159.875C159.75 236.65625 159.625 236.9375 159.53125 237.234375C159.640625 236.9375 159.765625 236.65625 159.890625 236.359375zM194.203125 236.359375C194.328125 236.65625 194.453125 236.9375 194.5625 237.234375C194.46875 236.9375 194.34375 236.65625 194.21875 236.359375H194.21875zM194.5625 237.234375C194.796875 237.828125 194.984375 238.4375 195.15625 239.0625C195 238.4375 194.8125 237.828125 194.5625 237.234375zM240.625 245.734375V148.84375C236.0625000000001 149.6875 231.3750000000001 150.15625 226.5625 150.15625C222.84375 150.15625 219.203125 149.875 215.625 149.359375V193.4375H28.125V78.28125H150.15625C150.0625 76.734375 150 75.171875 150 73.59375C150 66.5625 150.96875 59.75 152.75 53.28125H18.75C10.125 53.28125 3.125 60.28125 3.125 68.90625V245.734375C3.125 254.359375 10.125 261.359375 18.75 261.359375H47.953125V243.90625C47.953125 243.515625 47.96875 243.125 48 242.75C48 242.46875 48.03125 242.203125 48.0625 241.921875C48.09375 241.59375 48.140625 241.25 48.1875 240.9375C48.28125 240.296875 48.421875 239.671875 48.59375 239.0625C48.75 238.4375 48.9375 237.828125 49.1875 237.234375C49.28125 236.9375 49.40625 236.65625 49.53125 236.359375C52.421875 229.765625 59.03125 225.15625 66.703125 225.15625S80.984375 229.765625 83.875 236.359375C84 236.65625 84.125 236.9375 84.21875 237.234375C84.46875 237.828125 84.65625 238.4375 84.8125 239.0625C84.984375 239.671875 85.125 240.296875 85.21875 240.9375C85.265625 241.25 85.3125 241.59375 85.34375 241.921875C85.375 242.203125 85.40625 242.46875 85.40625 242.75C85.4375 243.125 85.453125 243.515625 85.453125 243.90625V261.359375H158.296875V243.90625C158.296875 243.515625 158.3125 243.125 158.34375 242.75C158.34375 242.46875 158.375 242.203125 158.40625 241.921875C158.4375 241.59375 158.484375 241.25 158.53125 240.9375C158.625 240.296875 158.765625 239.671875 158.9375 239.0625C159.09375 238.4375 159.28125 237.828125 159.53125 237.234375C159.625 236.9375 159.75 236.65625 159.875 236.359375C160.8125 234.21875 162.140625 232.28125 163.78125 230.640625C167.1875 227.25 171.875 225.15625 177.046875 225.15625C184.71875 225.15625 191.328125 229.765625 194.21875 236.359375C194.34375 236.65625 194.46875 236.9375 194.5625 237.234375C194.8125 237.828125 195 238.4375 195.15625 239.0625C195.328125 239.671875 195.46875 240.296875 195.5625 240.9375C195.609375 241.25 195.65625 241.59375 195.6875 241.921875C195.71875 242.203125 195.75 242.46875 195.75 242.75C195.78125 243.125 195.796875 243.515625 195.796875 243.90625V261.359375H225C233.6250000000001 261.359375 240.625 254.359375 240.625 245.734375zM48.59375 239.0625C48.765625 238.4375 48.953125 237.828125 49.1875 237.234375C48.9375 237.828125 48.75 238.4375 48.59375 239.0625zM49.546875 236.359375H49.53125C49.40625 236.65625 49.28125 236.9375 49.1875 237.234375C49.296875 236.9375 49.421875 236.65625 49.546875 236.359375zM66.703125 296.71875H66.703125A14.0625 14.0625 0 0 0 80.765625 282.65625V244.21875A14.0625 14.0625 0 0 0 66.703125 230.15625H66.703125A14.0625 14.0625 0 0 0 52.640625 244.21875V282.65625A14.0625 14.0625 0 0 0 66.703125 296.71875zM177.046875 296.71875H177.046875A14.0625 14.0625 0 0 0 191.109375 282.65625V244.21875A14.0625 14.0625 0 0 0 177.046875 230.15625H177.046875A14.0625 14.0625 0 0 0 162.984375 244.21875V282.65625A14.0625 14.0625 0 0 0 177.046875 296.71875zM226.5625 118.90625C251.546875 118.90625 271.875 98.578125 271.875 73.59375S251.546875 28.28125 226.5625 28.28125S181.25 48.609375 181.25 73.59375S201.578125 118.90625 226.5625 118.90625M226.5625 143.90625C187.734375 143.90625 156.25 112.421875 156.25 73.59375S187.734375 3.28125 226.5625 3.28125S296.875 34.765625 296.875 73.59375S265.390625 143.90625 226.5625 143.90625H226.5625zM253.21875 60.9375H226.5625C219.65625 60.9375 214.0625 66.53125 214.0625 73.4375V100.28125C214.0625 107.1875 219.65625 112.78125 226.5625 112.78125S239.0625 107.1875 239.0625 100.28125V85.9375H253.21875C260.125 85.9375 265.71875 80.34375 265.71875 73.4375S260.125 60.9375 253.21875 60.9375z" />
    <glyph glyph-name="call119"
      unicode="&#xF10B;"
      horiz-adv-x="300" d="M74.015625 143.734375L143.671875 74.078125C146.890625 70.859375 152.09375 70.859375 155.3125 74.078125L162.1875 80.953125L220.453125 22.6875L207.765625 10C186.046875 -11.71875 124.15625 14.953125 69.53125 69.578125C14.875 124.21875 -11.796875 186.09375 9.9375 207.8125L22.625 220.5L80.890625 162.234375L74.015625 155.359375C70.796875 152.140625 70.796875 146.9375 74.015625 143.71875zM26.2066269954487 224.0989442459079L31.1674230072106 229.0597402576697C35.432160781242 233.3244780317011 42.370646071635 233.3244780317011 46.6353838456663 229.0597402576697L89.4263926509085 186.2687314524276C93.6911304249399 182.0039936783962 93.6911304249399 175.0655083880032 89.4263926509085 170.8007706139719L84.4655966391466 165.83997460221L26.2066269954487 224.0989442459079L26.2066269954487 224.0989442459079zM165.7588352072317 84.5520692459079L170.7196312189936 89.5128652576697C174.9843689930249 93.7776030317011 181.9228542834179 93.7776030317011 186.1875920574493 89.5128652576697L228.9786008626915 46.7218564524276C233.2433386367229 42.4571186783962 233.2433386367229 35.5186333880032 228.9786008626915 31.2538956139719L224.0178048509296 26.29309960221L165.7588352072317 84.5520692459079L165.7588352072317 84.5520692459079zM203.875 297.546875C152.09375 297.546875 110.125 262.578125 110.125 219.421875C110.125 196.0625 122.4375 175.078125 141.953125 160.765625C143.765625 159.4375 144.34375 157 143.375 154.984375L134.96875 137.53125C134.34375 136.21875 135.6875 134.828125 137.015625 135.421875L163.59375 147.390625C164.703125 147.890625 165.953125 147.921875 167.09375 147.515625C178.375 143.5 190.796875 141.28125 203.859375 141.28125C255.625 141.28125 297.609375 176.265625 297.609375 219.40625S255.6406250000001 297.546875 203.875 297.546875zM175.640625 187.875H136.6875V198.28125H150.609375V237.59375H138.875V245.5625C145.34375 246.78125 149.8125 248.453125 153.921875 250.984375H163.46875V198.28125H175.640625V187.875zM222.828125 187.875H183.859375V198.28125H197.78125V237.59375H186.046875V245.5625C192.53125 246.78125 197 248.453125 201.109375 250.984375H210.65625V198.28125H222.828125V187.875zM246.015625 186.640625C238.046875 186.640625 232.1875 190.0625 228.421875 194L235.25 201.78125C237.5312500000001 199.15625 241.46875 197.140625 245.234375 197.140625C252.671875 197.140625 258.796875 202.578125 259.328125 218.859375C255.734375 214.390625 250.21875 211.765625 246.015625 211.765625C235.15625 211.765625 227.375 218.078125 227.375 231.296875S236.65625 252.21875 247.765625 252.21875C260.03125 252.21875 271.0625 242.84375 271.0625 221.140625C271.0625 197.0625 259.0625 186.640625 246.015625 186.640625zM247.953125 242.5C243.140625 242.5 239.203125 238.828125 239.203125 231.296875C239.203125 224.203125 242.7968750000001 220.96875 248.484375 220.96875C251.90625 220.96875 256.015625 222.984375 258.984375 227.890625C257.671875 238.484375 253.2968750000001 242.515625 247.953125 242.515625z" />
    <glyph glyph-name="camp"
      unicode="&#xF10C;"
      horiz-adv-x="300" d="M206.265625 3.125H296.484375L172.625 230.3125L191.71875 296.875H169.84375L149.640625 256.0625L129.4375 296.875H107.625L126.921875 229.515625L3.53125 3.125H93.734375C127.8125 21.71875 150 119.953125 150 119.953125C150 119.953125 174.625 20.03125 206.265625 3.125z" />
    <glyph glyph-name="cancel"
      unicode="&#xF10D;"
      horiz-adv-x="300" d="M150 296.875C68.890625 296.875 3.125 231.109375 3.125 150S68.890625 3.125 150 3.125S296.875 68.890625 296.875 150S231.109375 296.875 150 296.875zM227.625 74.5625L225.4375 72.375C217.59375 64.53125 204.859375 64.53125 197.015625 72.375L150 119.390625L104.078125 73.46875C95.625 65.015625 81.921875 65.015625 73.46875 73.46875S65.015625 95.625 73.46875 104.078125L119.390625 150L72.375 197.015625C64.53125 204.859375 64.53125 217.59375 72.375 225.4375L74.5625 227.625C82.40625 235.46875 95.140625 235.46875 102.984375 227.625L150 180.609375L195.921875 226.53125C204.375 234.984375 218.078125 234.984375 226.53125 226.53125H226.53125C234.984375 218.078125 234.984375 204.375 226.53125 195.921875L180.609375 150L227.625 102.984375C235.46875 95.140625 235.46875 82.40625 227.625 74.5624999999999z" />
    <glyph glyph-name="car"
      unicode="&#xF10E;"
      horiz-adv-x="300" d="M45.5625 92.265625A27.171875 27.171875 0 0 1 99.90625 92.265625A27.171875 27.171875 0 0 1 45.5625 92.265625M194.984375 92.265625A27.171875 27.171875 0 0 1 249.328125 92.265625A27.171875 27.171875 0 0 1 194.984375 92.265625M290.859375 155.234375L244.859375 170.828125C242.2656250000001 171.625 240.2031250000001 173.59375 239.3125 176.140625L220.765625 229.25C219.5625 232.640625 216.375 234.90625 212.765625 234.90625H40.75C36.65625 234.90625 33.140625 231.984375 32.40625 227.96875L22.328125 173.203125C21.984375 171.375 21.046875 169.703125 19.671875 168.46875L5.90625 155.9375C4.125 154.328125 3.125 152.046875 3.125 149.65625V100.765625C3.125 96.078125 6.921875 92.28125 11.609375 92.28125H32.828125C32.828125 114.3125 50.6875 132.1875 72.734375 132.1875S112.640625 114.328125 112.640625 92.28125H181.40625C181.40625 114.78125 199.65625 133.03125 222.15625 133.03125S262.90625 114.78125 262.90625 92.28125H288.375C293.0625 92.28125 296.859375 96.078125 296.859375 100.765625V147.125C296.859375 150.859375 294.421875 154.15625 290.84375 155.234375zM118.59375 173.765625C118.59375 171.890625 117.078125 170.375 115.203125 170.375H47.765625C45.703125 170.375 44.125 172.1875 44.40625 174.234375L50.265625 216.6875C50.5 218.375 51.9375 219.625 53.625 219.625H115.1875C117.0625 219.625 118.578125 218.109375 118.578125 216.234375V173.78125zM217.546875 170.375H137.25C135.375 170.375 133.859375 171.890625 133.859375 173.765625V216.21875C133.859375 218.09375 135.375 219.609375 137.25 219.609375H204.359375C205.84375 219.609375 207.15625 218.640625 207.609375 217.21875L220.78125 174.765625C221.453125 172.578125 219.828125 170.359375 217.53125 170.359375z" />
    <glyph glyph-name="chart-bar"
      unicode="&#xF10F;"
      horiz-adv-x="300" d="M296.875 24.578125C296.875 17.28125 290.96875 11.375 283.671875 11.375H11.375C6.8125 11.375 3.125 15.078125 3.125 19.625V275.421875C3.125 282.71875 9.03125 288.625 16.328125 288.625S29.53125 282.71875 29.53125 275.421875V37.78125H283.671875C290.96875 37.78125 296.875 31.875 296.875 24.578125zM58.796875 131.015625H89.375A7.8125 7.8125 0 0 0 97.1875 123.203125V59.609375A7.8125 7.8125 0 0 0 89.375 51.796875H58.796875A7.8125 7.8125 0 0 0 50.984375 59.609375V123.203125A7.8125 7.8125 0 0 0 58.796875 131.015625zM116 197.03125H146.578125A7.8125 7.8125 0 0 0 154.390625 189.21875V59.625A7.8125 7.8125 0 0 0 146.578125 51.8125H116A7.8125 7.8125 0 0 0 108.1875 59.625V189.21875A7.8125 7.8125 0 0 0 116 197.03125zM173.21875 269.640625H203.796875A7.8125 7.8125 0 0 0 211.609375 261.828125V59.609375A7.8125 7.8125 0 0 0 203.796875 51.796875H173.21875A7.8125 7.8125 0 0 0 165.40625 59.609375V261.828125A7.8125 7.8125 0 0 0 173.21875 269.640625zM230.421875 223.4375H261A7.8125 7.8125 0 0 0 268.8125 215.625V59.625A7.8125 7.8125 0 0 0 261 51.8125H230.421875A7.8125 7.8125 0 0 0 222.609375 59.625V215.625A7.8125 7.8125 0 0 0 230.421875 223.4375z" />
    <glyph glyph-name="chart-line"
      unicode="&#xF110;"
      horiz-adv-x="300" d="M296.875 24.578125C296.875 17.28125 290.96875 11.375 283.671875 11.375H11.375C6.8125 11.375 3.125 15.078125 3.125 19.625V275.421875C3.125 282.71875 9.03125 288.625 16.328125 288.625S29.53125 282.71875 29.53125 275.421875V37.78125H283.671875C290.96875 37.78125 296.875 31.875 296.875 24.578125zM284.375 213.28125C284.375 196.015625 270.390625 182.03125 253.125 182.03125C251.421875 182.03125 249.75 182.171875 248.1250000000001 182.4375L219.765625 138.390625C223.078125 133.4375 225 127.484375 225 121.09375C225 103.828125 211.015625 89.84375 193.75 89.84375S162.5 103.828125 162.5 121.09375C162.5 124.34375 163 127.484375 163.921875 130.4375L147.8125 144.4375C143.734375 142.5 139.1875 141.40625 134.375 141.40625C132.046875 141.40625 129.765625 141.65625 127.578125 142.15625L101.984375 107.140625C104.703125 102.515625 106.25 97.140625 106.25 91.40625C106.25 74.140625 92.265625 60.15625 75 60.15625S43.75 74.140625 43.75 91.40625S57.734375 122.65625 75 122.65625C77.328125 122.65625 79.609375 122.40625 81.796875 121.90625L107.390625 156.921875C104.671875 161.546875 103.125 166.921875 103.125 172.65625C103.125 189.921875 117.109375 203.90625 134.375 203.90625S165.625 189.921875 165.625 172.65625C165.625 169.40625 165.125 166.25 164.203125 163.296875L180.3125 149.3125C184.390625 151.25 188.9375 152.34375 193.75 152.34375C195.453125 152.34375 197.125 152.203125 198.75 151.9375L227.1093750000001 195.984375C223.796875 200.9375 221.8750000000001 206.890625 221.8750000000001 213.28125C221.8750000000001 230.546875 235.8593750000001 244.53125 253.1250000000001 244.53125S284.3750000000001 230.546875 284.3750000000001 213.28125z" />
    <glyph glyph-name="chart-pie"
      unicode="&#xF111;"
      horiz-adv-x="300" d="M147.328125 139.671875H268.328125C272.7500000000001 139.671875 276.25 135.9375 275.9843750000001 131.515625C271.703125 60.34375 211.8593750000001 3.109375 139.6875 3.109375S3.125 64.765625 3.125 139.671875S60.34375 271.703125 131.53125 275.96875C135.9375 276.234375 139.6875 272.734375 139.6875 268.3125V147.3125C139.6875 143.078125 143.109375 139.65625 147.34375 139.65625zM160.5625 168.21875V289.21875C160.5625 293.65625 164.328125 297.125 168.765625 296.859375C201.984375 294.859375 233.4687500000001 280.765625 257.125 257.109375C280.78125 233.453125 294.875 201.96875 296.875 168.75C297.140625 164.3125 293.671875 160.546875 289.234375 160.546875H168.234375C164 160.546875 160.578125 163.96875 160.578125 168.203125z" />
    <glyph glyph-name="chart-tree"
      unicode="&#xF112;"
      horiz-adv-x="300" d="M296.875 87.5V28.125C296.875 23.8125 293.375 20.3125 289.0625 20.3125H220.3125C216 20.3125 212.5 23.8125 212.5 28.125V87.5C212.5 91.8125 216 95.3125 220.3125 95.3125H242.1875V136.6875H162.5V95.3125H184.375C188.6875 95.3125 192.1875 91.8125 192.1875 87.5V28.125C192.1875 23.8125 188.6875 20.3125 184.375 20.3125H115.625C111.3125 20.3125 107.8125 23.8125 107.8125 28.125V87.5C107.8125 91.8125 111.3125 95.3125 115.625 95.3125H137.5V136.6875H57.8125V95.3125H79.6875C84 95.3125 87.5 91.8125 87.5 87.5V28.125C87.5 23.8125 84 20.3125 79.6875 20.3125H10.9375C6.625 20.3125 3.125 23.8125 3.125 28.125V87.5C3.125 91.8125 6.625 95.3125 10.9375 95.3125H32.8125V141.375C32.8125 152.578125 41.5 161.6875 52.171875 161.6875H137.5V204.6875H95.3125C91 204.6875 87.5 208.1875 87.5 212.5V271.875C87.5 276.1875 91 279.6875 95.3125 279.6875H204.6875C209 279.6875 212.5 276.1875 212.5 271.875V212.5C212.5 208.1875 209 204.6875 204.6875 204.6875H162.5V161.6875H247.8281250000001C258.5000000000001 161.6875 267.1875 152.578125 267.1875 141.375V95.3125H289.0625C293.375 95.3125 296.875 91.8125 296.875 87.5z" />
    <glyph glyph-name="circle-o"
      unicode="&#xF113;"
      horiz-adv-x="300" d="M150 267.125C216.484375 267.125 270.578125 214.578125 270.578125 150S216.484375 32.8750000000001 150 32.8750000000001S29.421875 85.40625 29.421875 150S83.515625 267.125 150 267.125M150 295.3125C69.75 295.3125 4.6875 230.25 4.6875 150S69.75 4.6875 150 4.6875S295.3125 69.75 295.3125 150S230.2500000000001 295.3125 150 295.3125H150z" />
    <glyph glyph-name="circle"
      unicode="&#xF114;"
      horiz-adv-x="300" d="M9.375 150A140.625 140.625 0 0 1 290.625 150A140.625 140.625 0 0 1 9.375 150" />
    <glyph glyph-name="close"
      unicode="&#xF115;"
      horiz-adv-x="300" d="M284.484375 45.125C292.671875 36.9375 292.671875 23.6875 284.484375 15.5C280.40625 11.4218749999999 275.03125 9.3593749999999 269.671875 9.3593749999999S258.953125 11.40625 254.8593750000001 15.5L149.984375 120.375L45.125 15.515625C41.046875 11.4375 35.671875 9.375 30.3125 9.375S19.59375 11.421875 15.5 15.515625C7.3125 23.703125 7.3125 36.953125 15.5 45.140625L120.375 150.015625L15.515625 254.859375C7.328125 263.046875 7.328125 276.296875 15.515625 284.484375C23.703125 292.671875 36.953125 292.671875 45.140625 284.484375L150.015625 179.609375L254.875 284.484375C263.0625 292.671875 276.3125 292.671875 284.5 284.484375C292.6875000000001 276.296875 292.6875000000001 263.046875 284.5 254.859375L179.625 149.984375L284.5 45.109375z" />
    <glyph glyph-name="cloud"
      unicode="&#xF116;"
      horiz-adv-x="300" d="M296.875 121.796875C296.875 80.609375 263.484375 47.234375 222.3125 47.234375H67.875C32.109375 47.234375 3.125 76.234375 3.125 111.984375C3.125 142.890625 24.765625 168.734375 53.71875 175.1875C57.578125 218.671875 94.125 252.7500000000001 138.609375 252.7500000000001C175.578125 252.7500000000001 207.078125 229.2031250000001 218.890625 196.28125C220.03125 196.3437500000001 221.171875 196.359375 222.328125 196.359375C263.5 196.359375 296.890625 162.984375 296.890625 121.796875z" />
    <glyph glyph-name="color_48-chodai_logo_48"
      unicode="&#xF117;"
      horiz-adv-x="75" d="M64.109375 66.890625H75S74.625 51.953125 71.9375 44.515625C68.421875 34.859375 61.84375 25.65625 57.46875 21.265625C53.734375 17.53125 43 8.109375 27.640625 8.109375C10.53125 8.109375 0 20.828125 0 34.875S11.84375 61.625 26.75 61.625S47.796875 51.09375 47.796875 51.09375L40.34375 44.078125C36.390625 48.03125 32.890625 51.09375 27.1875 51.09375C20.609375 51.09375 10.953125 46.71875 10.953125 35.296875S20.15625 18.625 27.625 18.625S45.609375 22.140625 53.9375 33.53125C65.734375 49.6875 64.109375 66.859375 64.109375 66.859375z" />
    <glyph glyph-name="color_48-energy_color_filled_48"
      unicode="&#xF118;"
      horiz-adv-x="75" d="M25.28125 64.328125H49.71875A7.03125 7.03125 0 0 0 56.75 57.296875V7.6875A7.03125 7.03125 0 0 0 49.71875 0.65625H25.28125A7.03125 7.03125 0 0 0 18.25 7.6875V57.296875A7.03125 7.03125 0 0 0 25.28125 64.328125zM29.859375 74.34375H43.90625A3.671875 3.671875 0 0 0 47.578125 70.671875V70.03125A3.671875 3.671875 0 0 0 43.90625 66.359375H29.859375A3.671875 3.671875 0 0 0 26.1875 70.03125V70.671875A3.671875 3.671875 0 0 0 29.859375 74.34375zM32.75 50.609375H42.25A7.546875 7.546875 0 0 0 49.796875 43.0625V33.5625A7.546875 7.546875 0 0 0 42.25 26.015625H32.75A7.546875 7.546875 0 0 0 25.203125 33.5625V43.0625A7.546875 7.546875 0 0 0 32.75 50.609375zM31.84375 57.375H32.40625A1.5625 1.5625 0 0 0 33.96875 55.8125V50.328125A1.5625 1.5625 0 0 0 32.40625 48.765625H31.84375A1.5625 1.5625 0 0 0 30.28125 50.328125V55.8125A1.5625 1.5625 0 0 0 31.84375 57.375zM42.59375 57.375H43.15625A1.5625 1.5625 0 0 0 44.71875 55.8125V50.328125A1.5625 1.5625 0 0 0 43.15625 48.765625H42.59375A1.5625 1.5625 0 0 0 41.03125 50.328125V55.8125A1.5625 1.5625 0 0 0 42.59375 57.375zM37.5 29.703125H37.484375A1.234375 1.234375 0 0 0 38.71875 28.46875V8.796875A1.234375 1.234375 0 0 0 37.484375 7.5625H37.5A1.234375 1.234375 0 0 0 36.265625 8.796875V28.46875A1.234375 1.234375 0 0 0 37.5 29.703125z" />
    <glyph glyph-name="color_48-leaf_color_filled_48"
      unicode="&#xF119;"
      horiz-adv-x="75" d="M42.53125 25.453125C36.453125 20.109375 30.9375 16.953125 24.984375 16.4375C24.984375 16.4375 23.6875 9.59375 23.84375 1.171875C23.84375 1.171875 19.328125 -0.765625 17.78125 1.390625C17.78125 1.390625 21.203125 16.53125 23.9375 22.90625C30.0625 37.15625 45.59375 52.953125 45.59375 52.953125C45.59375 52.953125 34 42.625 30.0625 37.15625C26.125 31.6875 18.640625 18.40625 18.640625 18.40625C17.3125 20.203125 14.40625 24.671875 14.1875 30.953125C14.15625 31.90625 14.0625 36.109375 16.1875 40.921875C17.828125 44.65625 19.984375 46.9375 22.09375 49.125C23.328125 50.40625 27.34375 54.40625 35.046875 58.46875C42 62.125 43.53125 61.390625 48.578125 64.28125C53.96875 67.375 57.6875 71.34375 60.171875 74.609375C60.171875 74.609375 62.6875 66.578125 61.359375 56.65625C59.640625 43.71875 49.390625 31.453125 42.546875 25.4375z" />
    <glyph glyph-name="color_48-money_color_filled_48"
      unicode="&#xF11A;"
      horiz-adv-x="75" d="M37.28125 37.5C29.6875 37.5 23.4375 43.75 23.4375 51.34375S29.6875 65.1875 37.28125 65.1875S51.125 58.9375 51.125 51.34375M37.28125 37.5C44.875 37.5 51.125 31.25 51.125 23.65625S44.875 9.8125 37.28125 9.8125C29.6875 9.8125 23.4375 16.0625 23.4375 23.65625M37.28125 70.828125L38.84375 69.265625L38.84375 2.609375L37.28125 4.171875z" />
    <glyph glyph-name="color_48-power_color_filled_48"
      unicode="&#xF11B;"
      horiz-adv-x="75" d="M25.28125 64.328125H49.71875A7.03125 7.03125 0 0 0 56.75 57.296875V7.6875A7.03125 7.03125 0 0 0 49.71875 0.65625H25.28125A7.03125 7.03125 0 0 0 18.25 7.6875V57.296875A7.03125 7.03125 0 0 0 25.28125 64.328125zM29.859375 74.34375H43.90625A3.671875 3.671875 0 0 0 47.578125 70.671875V70.03125A3.671875 3.671875 0 0 0 43.90625 66.359375H29.859375A3.671875 3.671875 0 0 0 26.1875 70.03125V70.671875A3.671875 3.671875 0 0 0 29.859375 74.34375zM37.125 59.015625C38.921875 59.40625 46.65625 60.15625 46.65625 57.203125C46.65625 54.984375 40.96875 41.765625 39.28125 36.546875C39.03125 35.765625 38.546875 33.59375 40.75 33.59375S45.921875 32.859375 44.4375 30.640625S32.84375 11.953125 28.203125 6.296875C28.09375 6.15625 27.46875 5.5625 27.46875 6.296875C27.46875 8.625 33.90625 20.984375 34.84375 26.21875C35 27.125 34.84375 29.171875 32.625 29.171875S28.9375 29.90625 28.9375 29.90625C28.9375 29.90625 27.46875 30.28125 27.46875 32.296875S31.421875 50.265625 34.109375 55.71875C34.59375 56.71875 35.578125 58.671875 37.125 59.015625z" />
    <glyph glyph-name="copy"
      unicode="&#xF11C;"
      horiz-adv-x="300" d="M270.375 296.875H91.109375C86.8125 296.875 83.3125 293.390625 83.3125 289.078125V261.890625H42.09375C30.921875 261.890625 21.828125 252.796875 21.828125 241.625V23.3906250000001C21.828125 12.2187500000001 30.921875 3.1250000000001 42.09375 3.1250000000001H221.359375C232.5312500000001 3.1250000000001 241.6250000000001 12.2187500000001 241.6250000000001 23.3906250000001V63.046875H270.3750000000001C274.6718750000001 63.046875 278.1718750000001 66.5468750000001 278.1718750000001 70.8437500000001V289.078125C278.1718750000001 293.375 274.6875000000001 296.875 270.3750000000001 296.875zM216.6875 28.0625H46.765625V236.953125H83.3125V70.84375C83.3125 66.546875 86.796875 63.046875 91.109375 63.046875H216.6875V28.0624999999999z" />
    <glyph glyph-name="cursor-o"
      unicode="&#xF11D;"
      horiz-adv-x="300" d="M202.40625 3.125C201.703125 3.125 201 3.1875 200.296875 3.296875C197.03125 3.8593750000001 194.140625 5.6875 192.234375 8.4062500000001L138.1875 85.265625L97.421875 45.046875C94.15625 41.828125 89.375 40.671875 85 42.03125C80.625 43.390625 77.34375 47.0625 76.484375 51.5625L32.328125 282.109375C31.40625 286.953125 33.421875 291.890625 37.484375 294.6875C41.546875 297.484375 46.875 297.625 51.0625 295.03125L261.984375 165.046875C266.15625 162.46875 268.4375 157.6875 267.7812500000001 152.8125S263.6875000000001 143.921875 258.9687500000001 142.53125L205.5937500000001 126.78125L255.0937500000001 52.53125C258.8281250000001 46.9375 257.4375000000001 39.390625 251.9531250000001 35.5L209.6093750000001 5.40625C207.4843750000001 3.90625 204.9687500000001 3.109375 202.4062500000001 3.109375zM139.90625 116.859375C140.28125 116.859375 140.65625 116.84375 141.015625 116.8125C144.65625 116.484375 147.96875 114.578125 150.078125 111.578125L205.375 32.921875L227.703125 48.78125L175.53125 127.03125C173.34375 130.3125 172.84375 134.453125 174.1875 138.171875S178.5625 144.734375 182.359375 145.859375L225.1875 158.5L62.0625 259.03125L96.515625 79.09375L131.171875 113.28125C133.515625 115.59375 136.65625 116.859375 139.90625 116.859375z" />
    <glyph glyph-name="cursor"
      unicode="&#xF11E;"
      horiz-adv-x="300" d="M135.875 94.109375L95.34375 54.125C90.71875 49.5625 82.875 51.9999999999999 81.65625 58.375L37.84375 287.203125C36.515625 294.140625 44.0625 299.359375 50.078125 295.640625L258.4531250000001 167.21875C264.4375000000001 163.53125 263.2343750000001 154.5 256.4843750000001 152.515625L205.5000000000001 137.484375C200.25 135.9375 198.0000000000001 129.75 201.0468750000001 125.1875L257.4218750000001 40.640625C259.8593750000001 36.984375 258.9531250000001 32.0625 255.3750000000001 29.515625L220.3593750000001 4.640625C216.6875000000001 2.03125 211.5937500000001 2.90625 209.0156250000001 6.59375L148.2500000000001 93.015625C145.3593750000001 97.125 139.4687500000001 97.65625 135.9062500000001 94.125z" />
    <glyph glyph-name="cut"
      unicode="&#xF11F;"
      horiz-adv-x="300" d="M212.015625 109.4375C209.453125 109.4375 206.921875 109.25 204.453125 108.90625L169.25 159.1875C189.625 190.9375 209.984375 223.640625 215.421875 235.640625C225.8593750000001 258.6875 230.703125 278.0625 232.953125 291.21875C233.8125000000001 296.21875 227.2656250000001 298.890625 224.359375 294.734375L149.34375 187.609375L74.28125 294.828125C71.375 298.984375 64.828125 296.3125 65.6875 291.3125C67.9375 278.15625 72.78125 258.78125 83.21875 235.734375C88.65625 223.71875 109.046875 190.96875 129.4375 159.1875L94.34375 109.0625C92.265625 109.3125 90.140625 109.4375 87.984375 109.4375C58.625 109.4375 34.828125 85.640625 34.828125 56.28125S58.625 3.1249999999999 87.984375 3.1249999999999S141.140625 26.9218749999999 141.140625 56.28125C141.140625 70.625 135.453125 83.6406249999999 126.234375 93.203125C131.140625 100.6093749999999 139.546875 113.375 149.34375 128.40625C159.53125 112.796875 168.203125 99.6093749999999 172.984375 92.3906249999999C164.21875 82.90625 158.859375 70.2343749999999 158.859375 56.28125C158.859375 26.921875 182.65625 3.1249999999999 212.015625 3.1249999999999S265.1718750000001 26.9218749999999 265.1718750000001 56.28125S241.3750000000001 109.4375 212.015625 109.4375zM87.984375 28.125C72.453125 28.125 59.828125 40.75 59.828125 56.28125S72.453125 84.4375 87.984375 84.4375S116.140625 71.8125 116.140625 56.28125S103.515625 28.125 87.984375 28.125zM212.015625 28.125C196.484375 28.125 183.859375 40.75 183.859375 56.28125S196.484375 84.4375 212.015625 84.4375S240.171875 71.8125 240.171875 56.28125S227.546875 28.125 212.015625 28.125z" />
    <glyph glyph-name="database"
      unicode="&#xF120;"
      horiz-adv-x="300" d="M31.546875 255.421875A118.453125 41.453125 0 0 1 268.453125 255.421875A118.453125 41.453125 0 0 1 31.546875 255.421875M264.9375 226.25C224.21875 204.234375 196.0625 199.75 150 199.75S73.671875 204.21875 35.109375 226.125C33.53125 227.03125 31.546875 225.90625 31.546875 224.078125V181.984375C31.546875 164.21875 84.578125 145.265625 150 145.265625S268.453125 164.21875 268.453125 181.984375V224.1875C268.453125 225.984375 266.515625 227.109375 264.9375 226.25zM229.359375 173.6875C224.78125 173.6875 221.0625 177.40625 221.0625 181.984375S224.78125 190.28125 229.359375 190.28125S237.65625 186.5625 237.65625 181.984375S233.9375 173.6875 229.359375 173.6875zM264.9375 155.1875C224.21875 133.171875 196.0625 128.6875 150 128.6875S73.671875 133.15625 35.109375 155.0625C33.53125 155.96875 31.546875 154.84375 31.546875 153.015625V110.921875C31.546875 93.15625 84.578125 74.203125 150 74.203125S268.453125 93.15625 268.453125 110.921875V153.125C268.453125 154.921875 266.515625 156.046875 264.9375 155.1875zM229.359375 102.625C224.78125 102.625 221.0625 106.34375 221.0625 110.921875S224.78125 119.21875 229.359375 119.21875S237.65625 115.5 237.65625 110.921875S233.9375 102.625 229.359375 102.625zM264.9375 84.109375C224.21875 62.09375 196.0625 57.609375 150 57.609375S73.671875 62.078125 35.109375 83.984375C33.53125 84.890625 31.546875 83.765625 31.546875 81.9375V39.84375C31.546875 22.078125 84.578125 3.125 150 3.125S268.453125 22.078125 268.453125 39.84375V82.046875C268.453125 83.84375 266.515625 84.96875 264.9375 84.109375zM229.359375 31.546875C224.78125 31.546875 221.0625 35.265625 221.0625 39.84375S224.78125 48.140625 229.359375 48.140625S237.65625 44.421875 237.65625 39.84375S233.9375 31.546875 229.359375 31.546875z" />
    <glyph glyph-name="down"
      unicode="&#xF121;"
      horiz-adv-x="300" d="M281 262.78125L151.25 139.953125C149.015625 137.84375 145.53125 137.875 143.34375 140.03125L19.0625 261.953125C15.453125 265.5 9.375 262.9375 9.375 257.890625V171.171875C9.375 169.640625 9.984375 168.1875 11.0625 167.109375L142.515625 37.28125C144.703125 35.125 148.1875 35.078125 150.421875 37.1875L288.828125 167.109375C289.96875 168.1875 290.625 169.6875 290.625 171.265625V258.640625C290.625 263.640625 284.640625 266.21875 281 262.78125z" />
    <glyph glyph-name="download"
      unicode="&#xF122;"
      horiz-adv-x="300" d="M279.6875 1.5625H20.3125C13.40625 1.5625 7.8125 7.15625 7.8125 14.0625V92.1875C7.8125 99.09375 13.40625 104.6875 20.3125 104.6875S32.8125 99.09375 32.8125 92.1875V26.5625H267.1875V92.1875C267.1875 99.09375 272.78125 104.6875 279.6875 104.6875S292.1875 99.09375 292.1875 92.1875V14.0625C292.1875 7.15625 286.59375 1.5625 279.6875 1.5625zM113.09375 300H187.3125C193.515625 300 198.515625 295.578125 198.515625 290.125V181.625H239.0625C246.828125 181.625 251.2031250000001 168.84375 246.421875 163.03125L158.609375 60.59375C153.875 54.796875 146.078125 54.796875 141.34375 60.59375L53.53125 163.03125C48.75 168.84375 53.125 181.625 60.890625 181.625H101.84375V290.125C101.84375 295.5625 106.875 300 113.078125 300z" />
    <glyph glyph-name="file-log"
      unicode="&#xF123;"
      horiz-adv-x="300" d="M197.65625 153.90625H100.78125C93.875 153.90625 88.28125 159.5 88.28125 166.40625S93.875 178.90625 100.78125 178.90625H197.65625C204.5625 178.90625 210.15625 173.3125 210.15625 166.40625S204.5625 153.90625 197.65625 153.90625zM125.296875 90.640625C125.296875 76.25 131.296875 67.046875 141.09375 67.046875S157 76.25 157 90.640625S150.90625 113.546875 141.09375 113.546875S125.296875 105.046875 125.296875 90.640625zM267.1875 146.234375H256.25V285.9375C256.25 292.84375 250.65625 298.4375 243.75 298.4375H132.03125C128.71875 298.4375 125.53125 297.125 123.1875 294.78125L47.40625 219C45.0625 216.65625 43.75 213.46875 43.75 210.15625V146.234375H32.8125C28.5 146.234375 25 142.734375 25 138.421875V41.546875C25 37.234375 28.5 33.734375 32.8125 33.734375H43.75V14.0625C43.75 7.15625 49.34375 1.5625 56.25 1.5625H243.75C250.65625 1.5625 256.25 7.15625 256.25 14.0625V33.734375H267.1875C271.5 33.734375 275 37.234375 275 41.546875V138.421875C275 142.734375 271.5 146.234375 267.1875 146.234375zM119.53125 254.984375V222.65625H87.203125L119.53125 254.984375zM68.75 197.65625H132.03125C138.9375 197.65625 144.53125 203.25 144.53125 210.15625V273.4375H231.25V146.234375H68.75V197.65625zM175.1875 90.640625C175.1875 66.25 161.390625 51.640625 141.09375 51.640625S107 66.234375 107 90.640625S120.796875 128.84375 141.09375 128.84375S175.1875 114.9375 175.1875 90.640625zM53.90625 53.046875V127.546875H71.8125V68.046875H100.8125V53.046875H53.921875zM231.25 26.5625H68.75V33.734375H231.25V26.5625zM248.296875 60.75C243.09375 55.75 233.890625 51.65625 223.5 51.65625C202.90625 51.65625 186.609375 64.65625 186.609375 89.859375S203.3125 128.859375 223.203125 128.859375C234.109375 128.859375 241.90625 124.265625 247 119.15625L237.59375 107.75C233.890625 111.046875 230 113.546875 223.796875 113.546875C212.796875 113.546875 204.890625 104.953125 204.890625 90.453125S211.484375 67.0625 225.390625 67.0625C227.984375 67.0625 230.796875 67.765625 232.390625 68.96875V80.96875H220.5937499999999V95.5625H248.2968749999999V60.765625z" />
    <glyph glyph-name="file-o"
      unicode="&#xF124;"
      horiz-adv-x="300" d="M243.75 1.5625H56.25C49.34375 1.5625 43.75 7.15625 43.75 14.0625V210.15625C43.75 213.46875 45.0625 216.65625 47.40625 219L123.1875 294.78125C125.53125 297.125 128.71875 298.4375 132.03125 298.4375H243.75C250.65625 298.4375 256.25 292.84375 256.25 285.9375V14.0625C256.25 7.15625 250.65625 1.5625 243.75 1.5625zM68.75 26.5625H231.25V273.4375H137.203125L68.75 204.984375V26.5625zM132.03125 197.65625H57.03125C51.96875 197.65625 47.421875 200.703125 45.484375 205.375C43.546875 210.046875 44.625 215.421875 48.1875 219L123.1875 294C126.765625 297.578125 132.140625 298.640625 136.8125 296.703125C141.484375 294.765625 144.53125 290.203125 144.53125 285.15625V210.15625C144.53125 203.25 138.9375 197.65625 132.03125 197.65625zM87.203125 222.65625H119.53125V254.984375L87.203125 222.65625zM197.65625 153.90625H100.78125C93.875 153.90625 88.28125 159.5 88.28125 166.40625S93.875 178.90625 100.78125 178.90625H197.65625C204.5625 178.90625 210.15625 173.3125 210.15625 166.40625S204.5625 153.90625 197.65625 153.90625zM178.90625 107.03125H100.78125C93.875 107.03125 88.28125 112.625 88.28125 119.53125S93.875 132.03125 100.78125 132.03125H178.90625C185.8125 132.03125 191.40625 126.4375 191.40625 119.53125S185.8125 107.03125 178.90625 107.03125zM207.03125 60.15625H100.78125C93.875 60.15625 88.28125 65.75 88.28125 72.65625S93.875 85.15625 100.78125 85.15625H207.03125C213.9375 85.15625 219.53125 79.5625 219.53125 72.65625S213.9375 60.15625 207.03125 60.15625z" />
    <glyph glyph-name="file"
      unicode="&#xF125;"
      horiz-adv-x="300" d="M108.984375 292.328125L52.671875 236.015625C49.53125 232.875 51.75 227.5 56.203125 227.5H112.515625C115.265625 227.5 117.5 229.734375 117.5 232.484375V288.796875C117.5 293.234375 112.125 295.46875 108.984375 292.328125zM245.015625 295H135.8125C133.0625 295 130.828125 292.765625 130.828125 290.015625V219.15625C130.828125 216.40625 128.59375 214.171875 125.84375 214.171875H54.984375C52.234375 214.171875 50 211.9375 50 209.1875V9.984375C50 7.2343750000001 52.234375 5 54.984375 5H245.015625C247.765625 5 250 7.2343750000001 250 9.984375V290.015625C250 292.765625 247.765625 295 245.015625 295zM97.5 180.828125H200.828125C208.1875 180.828125 214.15625 174.859375 214.15625 167.5S208.1875 154.171875 200.828125 154.171875H97.5C90.140625 154.171875 84.171875 160.140625 84.171875 167.5S90.140625 180.828125 97.5 180.828125zM97.5 130.828125H180.828125C188.1875 130.828125 194.15625 124.859375 194.15625 117.5S188.1875 104.171875 180.828125 104.171875H97.5C90.140625 104.171875 84.171875 110.140625 84.171875 117.5S90.140625 130.828125 97.5 130.828125zM210.828125 54.15625H97.5C90.140625 54.15625 84.171875 60.125 84.171875 67.484375S90.140625 80.8125 97.5 80.8125H210.828125C218.1875 80.8125 224.15625 74.84375 224.15625 67.484375S218.1875 54.15625 210.828125 54.15625z" />
    <glyph glyph-name="finger-o"
      unicode="&#xF126;"
      horiz-adv-x="300" d="M264.5 185.890625C258.828125 191.59375 251.28125 194.75 243.21875 194.75C239.421875 194.75 235.796875 194.015625 232.4531250000001 192.71875C231.3281250000001 194.34375 230.0625 195.90625 228.6250000000001 197.328125C222.484375 203.46875 214.328125 206.859375 205.6562500000001 206.859375C200.8125000000001 206.859375 196.21875 205.765625 192.0781250000001 203.84375C191.0468750000001 205.28125 189.9218750000001 206.65625 188.6406250000001 207.9375C182.5 214.078125 174.34375 217.46875 165.6718750000001 217.46875C163.09375 217.46875 160.5937500000001 217.140625 158.1875 216.5625V266.734375C158.1875 275.40625 154.8125 283.5625 148.6562500000001 289.703125C142.515625 295.84375 134.359375 299.234375 125.6875000000001 299.234375C107.78125 299.234375 93.203125 284.65625 93.203125 266.75V141.8125L83.09375 151.9375C76.8125 158.171875 68.515625 161.609375 59.7343750000001 161.609375S42.6562500000001 158.171875 36.3437500000001 151.90625C23.4531250000001 139.015625 23.4531250000001 118.046875 36.3750000000001 105.125L93.875 47.9375H93.875C101.234375 40.578125 139 3.734375 158.7656250000001 1.96875C167.640625 1.171875 176.7500000000001 0.78125 185.21875 0.78125S201.859375 1.203125 208.1875 2.03125C230.1093750000001 4.8906250000001 259.421875 25.296875 265.84375 48.28125C273.1562500000001 74.328125 273.234375 122.21875 273.234375 124.25H273.265625V164.6875C273.265625 172.734375 270.1250000000001 180.296875 264.484375 185.890625zM248.265625 124.25C248.265625 123.78125 248.1875 77.765625 241.796875 55.015625C238.625 43.671875 219.015625 28.640625 204.96875 26.8124999999999C194.296875 25.421875 177.046875 25.4374999999999 161.125 26.8593749999999C154.453125 27.9843749999999 130.375 46.8281249999999 111.578125 65.6249999999999H111.578125S111.578125 65.6406249999999 111.5625 65.65625L54.0625 122.84375C50.921875 125.984375 50.921875 131.09375 54.03125 134.21875C55.59375 135.765625 57.625 136.625 59.765625 136.625S63.9375 135.765625 65.484375 134.234375L96.421875 103.3125C100.890625 98.328125 108.53125 97.734375 113.71875 102.046875C116.765625 104.578125 118.296875 108.2499999999999 118.21875 111.9218749999999C118.21875 111.9999999999999 118.21875 112.0624999999999 118.21875 112.1406249999999V266.734375C118.21875 270.859375 121.578125 274.21875 125.703125 274.21875C127.6875 274.21875 129.5625 273.4375 130.984375 272.015625C132.40625 270.59375 133.1875 268.71875 133.1875 266.734375V139.375C133.1875 132.46875 138.78125 126.875 145.6875 126.875S158.1875 132.46875 158.1875 139.375V184.96875C158.1875 189.09375 161.546875 192.453125 165.671875 192.453125C167.65625 192.453125 169.53125 191.671875 170.953125 190.25S173.15625 186.953125 173.15625 184.96875V134.828125C173.15625 127.921875 178.75 122.328125 185.65625 122.328125S198.15625 127.921875 198.15625 134.828125V174.359375C198.15625 178.484375 201.515625 181.84375 205.640625 181.84375C207.625 181.84375 209.5 181.0625 210.921875 179.640625C212.34375 178.21875 213.125 176.34375 213.125 174.359375V130.28125C213.125 123.375 218.71875 117.78125 225.625 117.78125S238.125 123.375 238.125 130.28125V164.65625C238.125 167.4531250000001 240.390625 169.71875 243.1875 169.71875C245 169.71875 246.171875 168.796875 246.78125 168.1875C247.328125 167.640625 248.25 166.46875 248.25 164.65625V124.21875H248.21875z" />
    <glyph glyph-name="finger"
      unicode="&#xF127;"
      horiz-adv-x="300" d="M249.453125 180.46875H249.453125C238.8906250000001 180.46875 230.328125 171.90625 230.328125 161.34375V171.90625C230.328125 183.9375 220.578125 193.671875 208.5625 193.671875H208.5625C196.546875 193.671875 186.796875 180.796875 186.796875 168.78125V181.359375C186.796875 193.078125 177.78125 203.171875 166.078125 203.71875C153.578125 204.3125 143.25 194.34375 143.25 181.96875V276.828125C143.25 288.546875 134.234375 298.640625 122.53125 299.1875C110.03125 299.78125 99.703125 289.8125 99.703125 277.4375V117.28125H99.703125S99.65625 116.15625 99.625 114.171875C99.5625 110.859375 95.546875 109.234375 93.21875 111.578125L67.890625 136.90625C59.859375 144.9375 46.765625 145.6875 38.359375 138.03125C29.390625 129.859375 29.140625 115.953125 37.625 107.46875L116 29.09375H116.015625C126.25 17.375 142.921875 6.296875 158.734375 2.59375C171.109375 -0.296875 197.03125 0.609375 209.578125 2.59375C231.40625 6.046875 255.765625 24.25 261.0625 43.15625C268.59375 70.046875 268.59375 117.265625 268.59375 117.265625H268.609375V161.3125C268 170.28125 260.046875 180.4375 249.484375 180.4375z" />
    <glyph glyph-name="firefighter"
      unicode="&#xF128;"
      horiz-adv-x="300" d="M150 208.328125H96.59375C96.59375 179.03125 120.703125 154.921875 150 154.921875S203.40625 179.03125 203.40625 208.328125H150zM150 101.203125L181.671875 132.875C171.71875 136.203125 161.078125 138.046875 150 138.046875H150C138.921875 138.046875 128.28125 136.21875 118.328125 132.875L150 101.203125zM249.140625 49.5C245.6875 80.3125 228.203125 106.859375 203.234375 122.640625L157.9375 77.359375C155.734375 75.15625 152.859375 74.0625 149.984375 74.0625S144.234375 75.15625 142.03125 77.359375L96.734375 122.640625C71.765625 106.8593750000001 54.28125 80.3125000000001 50.828125 49.5H249.109375zM50.203125 27.015625H249.7812500000001V3.125H50.203125V27.015625zM225.890625 242.0625H211.125C206 261.234375 192.015625 276.921875 173.890625 284.40625V285.625C173.890625 291.84375 168.859375 296.875 162.640625 296.875H137.34375C131.125 296.875 126.09375 291.84375 126.09375 285.625V284.40625C107.984375 276.921875 93.984375 261.234375 88.859375 242.0625H74.09375C71.765625 242.0625 69.65625 241.125 68.140625 239.59375C66.609375 238.078125 65.671875 235.96875 65.671875 233.640625C65.671875 228.984375 69.453125 225.203125 74.109375 225.203125H225.9062500000001C228.2343750000001 225.203125 230.3437500000001 226.140625 231.8593750000001 227.671875C233.390625 229.1875 234.3281250000001 231.296875 234.3281250000001 233.625C234.3281250000001 238.28125 230.5468750000001 242.0625 225.8906250000001 242.0625zM166.859375 258.921875C166.859375 249.609375 159.3125 242.0625 150 242.0625S133.140625 249.609375 133.140625 258.921875V270.171875H166.875V258.921875z" />
    <glyph glyph-name="freehand"
      unicode="&#xF129;"
      horiz-adv-x="300" d="M207.375 3.125C201.65625 3.125 196.0625 4.546875 191.078125 8.328125C174.484375 20.9062500000001 179.203125 41 181.75 51.8125C185.640625 68.3593750000001 193.125 85.46875 201.78125 105.296875C207.3125 117.9375 213.03125 131.015625 218.359375 145.25C220.265625 150.34375 220.890625 154.390625 220.9375 157.03125C218.109375 155.40625 213.765625 152.265625 208.25 146.625C194.03125 132.09375 183.921875 120.296875 175 109.890625C160.953125 93.5 149.84375 80.5625 131.375 66.9375C121.015625 59.3125 101.390625 47.640625 86.203125 55.234375C67.53125 64.5625 72.234375 85.25 78.09375 103.90625C86.953125 132.09375 101.09375 158.109375 114.78125 183.25C127.078125 205.859375 138.703125 227.21875 144.25 246.609375C145.25 250.125 145.75 253.140625 145.96875 255.484375C144.203125 253.890625 141.71875 251.28125 138.453125 247.078125C127.125 232.515625 120.3125 220.8125 113.703125 209.484375C105.609375 195.59375 97.96875 182.46875 83.640625 166.5625C75.515625 157.53125 58.59375 138.734375 38.234375 148.46875C25.75 154.4375 20.578125 169.125 25.34375 185.046875C29.859375 200.078125 38.125 213.671875 45.421875 225.671875C52.59375 237.453125 60 249.640625 59.46875 257.171875C59.046875 263.15625 53.28125 270.140625 48.265625 270.765625C43.5 271.359375 36.015625 266 31.75 256C28.9375 249.375 21.28125 246.296875 14.671875 249.125C8.046875 251.9375 4.96875 259.59375 7.796875 266.203125C16.3125 286.28125 34.296875 298.78125 51.484375 296.640625C68.890625 294.46875 84.125 277.609375 85.453125 259.046875C86.578125 243.21875 77.40625 228.125 67.6875 212.15625C60.890625 200.984375 53.859375 189.421875 50.3125 177.59375C49.46875 174.765625 49.609375 172.6875 49.859375 171.84375C49.921875 171.828125 49.953125 171.8125 49.953125 171.8125C50.046875 171.8125 53.65625 172.1875 64.296875 184.015625C76.828125 197.9375 83.484375 209.375 91.203125 222.625C97.90625 234.125 105.5 247.15625 117.890625 263.09375C124.1875 271.1875 138.90625 290.125 158.609375 282.25C171.484375 277.09375 175.484375 261.109375 169.3125 239.46875C162.984375 217.3125 150.6875 194.71875 137.6875 170.8125C124.59375 146.75 111.0625 121.875 102.96875 96.109375C100.015625 86.703125 99.171875 81.625 98.984375 79.03125C102.46875 79.828125 108.953125 82.78125 115.9375 87.921875C132.015625 99.78125 141.765625 111.125 155.234375 126.859375C164.421875 137.5625 174.828125 149.703125 189.640625 164.84375C206.609375 182.1875 221.734375 188.265625 233.390625 182.4375C247.2968750000001 175.484375 250.890625 157.734375 242.765625 136.109375C237.1875000000001 121.21875 231.3281250000001 107.828125 225.6562500000001 94.859375C217.5 76.203125 210.453125 60.09375 207.109375 45.84375C203.9375 32.34375 205.5625 30.109375 206.609375 29.2499999999999C209.390625 28.4999999999999 216.53125 30.9218749999999 227.8750000000001 36.4374999999999C232.7031250000001 38.7812499999999 250.0000000000001 48.4062499999999 270.0781250000001 73.5156249999999C274.578125 79.1249999999999 282.7656250000001 80.0468749999999 288.3906250000001 75.5468749999999C294.0000000000001 71.0468749999999 294.9218750000001 62.8593749999999 290.4218750000001 57.2343749999999C267.5781250000001 28.6718749999999 247.0468750000001 16.7968749999999 239.2812500000001 13.0156249999999C230.9843750000001 8.9843749999999 218.9531250000001 3.1093749999999 207.3750000000001 3.1093749999999zM97.046875 78.828125H97.046875z" />
    <glyph glyph-name="gallery"
      unicode="&#xF12A;"
      horiz-adv-x="300" d="M20.3125 287.5H123.4375A7.8125 7.8125 0 0 0 131.25 279.6875V176.5625A7.8125 7.8125 0 0 0 123.4375 168.75H20.3125A7.8125 7.8125 0 0 0 12.5 176.5625V279.6875A7.8125 7.8125 0 0 0 20.3125 287.5zM176.5625 287.5H279.6875A7.8125 7.8125 0 0 0 287.5 279.6875V176.5625A7.8125 7.8125 0 0 0 279.6875 168.75H176.5625A7.8125 7.8125 0 0 0 168.75 176.5625V279.6875A7.8125 7.8125 0 0 0 176.5625 287.5zM20.3125 131.25H123.4375A7.8125 7.8125 0 0 0 131.25 123.4375V20.3125A7.8125 7.8125 0 0 0 123.4375 12.5H20.3125A7.8125 7.8125 0 0 0 12.5 20.3125V123.4375A7.8125 7.8125 0 0 0 20.3125 131.25zM176.5625 131.25H279.6875A7.8125 7.8125 0 0 0 287.5 123.4375V20.3125A7.8125 7.8125 0 0 0 279.6875 12.5H176.5625A7.8125 7.8125 0 0 0 168.75 20.3125V123.4375A7.8125 7.8125 0 0 0 176.5625 131.25z" />
    <glyph glyph-name="gallery2"
      unicode="&#xF12B;"
      horiz-adv-x="300" d="M120.3125 287.5H179.6875A7.8125 7.8125 0 0 0 187.5 279.6875V220.3125A7.8125 7.8125 0 0 0 179.6875 212.5H120.3125A7.8125 7.8125 0 0 0 112.5 220.3125V279.6875A7.8125 7.8125 0 0 0 120.3125 287.5zM220.3125 287.5H279.6875A7.8125 7.8125 0 0 0 287.5 279.6875V220.3125A7.8125 7.8125 0 0 0 279.6875 212.5H220.3125A7.8125 7.8125 0 0 0 212.5 220.3125V279.6875A7.8125 7.8125 0 0 0 220.3125 287.5zM20.3125 287.5H79.6875A7.8125 7.8125 0 0 0 87.5 279.6875V220.3125A7.8125 7.8125 0 0 0 79.6875 212.5H20.3125A7.8125 7.8125 0 0 0 12.5 220.3125V279.6875A7.8125 7.8125 0 0 0 20.3125 287.5zM20.3125 187.5H79.6875A7.8125 7.8125 0 0 0 87.5 179.6875V120.3125A7.8125 7.8125 0 0 0 79.6875 112.5H20.3125A7.8125 7.8125 0 0 0 12.5 120.3125V179.6875A7.8125 7.8125 0 0 0 20.3125 187.5zM120.3125 187.5H179.6875A7.8125 7.8125 0 0 0 187.5 179.6875V120.3125A7.8125 7.8125 0 0 0 179.6875 112.5H120.3125A7.8125 7.8125 0 0 0 112.5 120.3125V179.6875A7.8125 7.8125 0 0 0 120.3125 187.5zM220.3125 187.5H279.6875A7.8125 7.8125 0 0 0 287.5 179.6875V120.3125A7.8125 7.8125 0 0 0 279.6875 112.5H220.3125A7.8125 7.8125 0 0 0 212.5 120.3125V179.6875A7.8125 7.8125 0 0 0 220.3125 187.5zM20.3125 87.5H79.6875A7.8125 7.8125 0 0 0 87.5 79.6875V20.3125A7.8125 7.8125 0 0 0 79.6875 12.5H20.3125A7.8125 7.8125 0 0 0 12.5 20.3125V79.6875A7.8125 7.8125 0 0 0 20.3125 87.5zM120.3125 87.5H179.6875A7.8125 7.8125 0 0 0 187.5 79.6875V20.3125A7.8125 7.8125 0 0 0 179.6875 12.5H120.3125A7.8125 7.8125 0 0 0 112.5 20.3125V79.6875A7.8125 7.8125 0 0 0 120.3125 87.5zM220.3125 87.5H279.6875A7.8125 7.8125 0 0 0 287.5 79.6875V20.3125A7.8125 7.8125 0 0 0 279.6875 12.5H220.3125A7.8125 7.8125 0 0 0 212.5 20.3125V79.6875A7.8125 7.8125 0 0 0 220.3125 87.5z" />
    <glyph glyph-name="helicopter"
      unicode="&#xF12C;"
      horiz-adv-x="300" d="M259 171.171875C242.125 188.046875 218.8125 198.484375 193.0625 198.484375H41.9375L18.265625 227.734375C17.625 228.546875 16.625 229.015625 15.609375 229.015625H5.625C2.53125 229.015625 0.578125 225.6875 2.09375 223L26.9375 178.546875C28.75 175.28125 32.015625 173.09375 35.734375 172.640625L99.578125 164.21875V136.484375C99.578125 105.28125 124.875 80 156.0625 80H261.046875C275 80 286.3125 91.3125 286.3125 105.25C286.3125 131 275.875 154.328125 259.0000000000001 171.203125zM257.609375 112.296875H190.234375C182.296875 112.296875 175.875 118.71875 175.875 126.65625V172.484375C175.875 176.921875 179.484375 180.53125 183.921875 180.53125H205.46875C227.953125 180.53125 265.65625 144.625 265.65625 120.34375C265.65625 115.90625 262.046875 112.296875 257.609375 112.296875zM242.3125000000001 233.484375C242.3125000000001 222.078125 231.4062500000001 216.390625 223.453125 216.421875C212.53125 216.453125 179.734375 226.5 165.09375 231.140625V214.625H172.5312500000001C176.859375 214.625 180.3593750000001 211.125 180.3593750000001 206.796875V199.484375C180.3593750000001 198.90625 179.9062500000001 198.46875 179.3281250000001 198.46875H132.8906250000001C132.3125000000001 198.46875 131.8593750000001 198.921875 131.8593750000001 199.484375V206.796875C131.8593750000001 211.125 135.3593750000001 214.625 139.6875000000001 214.625H147.1250000000001V231.140625C132.4843750000001 226.484375 99.6875000000001 216.453125 88.7656250000001 216.421875C80.8125000000001 216.390625 69.9062500000001 222.078125 69.9062500000001 233.484375S80.8125000000001 250.578125 88.7656250000001 250.546875C99.6875000000001 250.515625 132.4843750000001 240.46875 147.1250000000001 235.828125V237.984375C147.1250000000001 242.9375 151.1406250000001 246.96875 156.1093750000001 246.96875S165.0937500000001 242.953125 165.0937500000001 237.984375V235.828125C179.7343750000001 240.484375 212.5312500000001 250.515625 223.4531250000001 250.546875C231.4062500000001 250.578125 242.3125000000001 244.890625 242.3125000000001 233.484375zM262.140625 49.453125H110.34375C104.890625 49.453125 100.46875 53.875 100.46875 59.328125H100.46875C100.46875 64.78125 104.890625 69.203125 110.34375 69.203125H262.0625S271.390625 69.375 274.625 71C278.21875 72.796875 281.328125 77.046875 283.609375 78.1875C287.203125 79.984375 290.734375 79.21875 292.765625 78.1875C294.4375 77.34375 297.359375 74.578125 297.96875 72.796875C298.515625 71.21875 298.6406250000001 67.625 297.96875 66.09375C296.171875 62.03125 294.375 60.234375 288.984375 55.953125C286.015625 53.609375 280 51.25 274.6250000000001 50.53125S263.8593750000001 49.453125 262.1250000000001 49.453125z" />
    <glyph glyph-name="helipad"
      unicode="&#xF12D;"
      horiz-adv-x="300" d="M150 296.875C68.890625 296.875 3.125 231.125 3.125 150S68.890625 3.125 150 3.125S296.875 68.875 296.875 150S231.109375 296.875 150 296.875zM220.375 62.96875C220.375 59.265625 217.265625 56.25 213.4375 56.25H186.671875C182.84375 56.25 179.734375 59.25 179.734375 62.96875V134.40625H120.265625V62.96875C120.265625 59.265625 117.15625 56.25 113.328125 56.25H86.5625C82.734375 56.25 79.625 59.25 79.625 62.96875V237.03125C79.625 240.734375 82.734375 243.75 86.5625 243.75H113.328125C117.15625 243.75 120.265625 240.75 120.265625 237.03125V167.6875H179.734375V237.03125C179.734375 240.734375 182.84375 243.75 186.671875 243.75H213.4375C217.265625 243.75 220.375 240.75 220.375 237.03125V62.96875z" />
    <glyph glyph-name="home-o"
      unicode="&#xF12E;"
      horiz-adv-x="300" d="M238.984375 3.953125H186.1875C175.625 3.953125 167.015625 12.546875 167.015625 23.125V97.921875L133.890625 98.25V23.125C133.890625 12.5625000000001 125.296875 3.953125 114.71875 3.953125H59.671875C54.515625 3.953125 49.671875 5.96875 46.046875 9.640625C42.421875 13.3125 40.453125 18.171875 40.5 23.3281249999999L41.75 127.234375H15.8125C9.53125 127.234375 4.015625 131.03125 1.78125 136.890625C-0.375 142.546875 1 148.765625 5.28125 152.96875L136.09375 290.828125L136.46875 291.171875C143.71875 297.65625 154.671875 297.6875 161.953125 291.25L162.6875 290.546875L294.65625 153.046875C298.96875 148.859375 300.375 142.625 298.234375 136.953125C296 131.0625 290.484375 127.25 284.1875 127.25H258.140625V23.140625C258.140625 12.578125 249.546875 3.96875 238.96875 3.96875zM192.015625 28.953125H233.15625V152.21875H260.796875L149.28125 268.390625L39.03125 152.234375H67.0625L65.578125 28.9687500000001H108.890625V123.5L192.015625 122.6875V28.9687500000001z" />
    <glyph glyph-name="home-o2"
      unicode="&#xF12F;"
      horiz-adv-x="300" d="M13.28125 124C10.21875 124 7.140625 125.125 4.71875 127.390625C-0.3125 132.109375 -0.5625 140.03125 4.171875 145.0625L136.015625 285.421875L136.390625 285.765625C143.671875 292.359375 154.703125 292.390625 162.015625 285.84375L162.75 285.140625L295.765625 145.125C300.515625 140.125 300.3125 132.203125 295.3125 127.453125C290.3125 122.703125 282.390625 122.90625 277.640625 127.90625L149.28125 263.03125L22.390625 127.9375C19.9375 125.3125 16.609375 124 13.28125 124zM150 209.734375L226.4375000000001 128.796875V34.265625H193.84375V119.484375H108.90625V34.265625H73.578125V128.796875L150.015625 209.734375M150.015625 241.109375C147.09375 241.109375 144.171875 239.953125 141.984375 237.65625L51.59375 141.9375C49.65625 139.890625 48.578125 137.171875 48.578125 131.234375V17.1875C48.578125 14.21875 53.515625 9.28125 59.609375 9.28125H122.875C128.96875 9.28125 133.90625 14.21875 133.90625 20.3125V94.5H168.84375V20.3125C168.84375 14.21875 173.78125 9.28125 179.875 9.28125H240.4062500000001C246.5000000000001 9.28125 251.4375000000001 14.21875 251.4375000000001 23.4375V137.484375S251.4375000000001 137.453125 251.4375000000001 137.453125C251.3281250000001 137.453125 250.2656250000001 139.984375 248.4375000000001 141.921875L158.0468750000001 237.640625C155.8750000000001 239.953125 152.9531250000001 241.09375 150.0156250000001 241.09375H150.0156250000001z" />
    <glyph glyph-name="home"
      unicode="&#xF130;"
      horiz-adv-x="300" d="M6.78125 143.8125L144.53125 288.96875C147.1875 291.34375 151.203125 291.359375 153.875 289L293.2187500000001 143.828125C295.0625000000001 142.203125 293.9062500000001 139.171875 291.4531250000001 139.171875H250.8281250000001V16.265625C250.8281250000001 12.390625 247.6875000000001 9.234375 243.7968750000001 9.234375H188.140625C184.265625 9.234375 181.109375 12.375 181.109375 16.265625V108.15625L119.84375 108.75V16.265625C119.84375 12.390625 116.703125 9.234375 112.8125 9.234375H54.78125C50.875 9.234375 47.71875 12.421875 47.75 16.328125L49.234375 139.15625H8.5625C6.125 139.15625 4.96875 142.171875 6.78125 143.796875z" />
    <glyph glyph-name="idcard"
      unicode="&#xF131;"
      horiz-adv-x="300" d="M287.5 243.75H12.5C8.1875 243.75 4.6875 240.25 4.6875 235.9375V64.0625C4.6875 59.75 8.1875 56.25 12.5 56.25H287.5C291.8125 56.25 295.3125 59.75 295.3125 64.0625V235.9375C295.3125 240.25 291.8125 243.75 287.5 243.75zM82.8125 205.640625C97.796875 205.640625 109.953125 193.484375 109.953125 178.5S97.796875 151.359375 82.8125 151.359375S55.671875 163.515625 55.671875 178.5S67.828125 205.640625 82.8125 205.640625zM82.8125 94.359375H31.25C31.25 122.84375 54.328125 145.921875 82.8125 145.921875S134.375 122.84375 134.375 94.359375H82.8125zM260.9375 96.875H167.1875C162.015625 96.875 157.8125 101.078125 157.8125 106.25S162.015625 115.625 167.1875 115.625H260.9375C266.109375 115.625 270.3125 111.421875 270.3125 106.25S266.109375 96.875 260.9375 96.875zM260.9375 140.625H167.1875C162.015625 140.625 157.8125 144.828125 157.8125 150S162.015625 159.375 167.1875 159.375H260.9375C266.109375 159.375 270.3125 155.171875 270.3125 150S266.109375 140.625 260.9375 140.625zM260.9375 184.375H167.1875C162.015625 184.375 157.8125 188.578125 157.8125 193.75S162.015625 203.125 167.1875 203.125H260.9375C266.109375 203.125 270.3125 198.921875 270.3125 193.75S266.109375 184.375 260.9375 184.375z" />
    <glyph glyph-name="info"
      unicode="&#xF132;"
      horiz-adv-x="300" d="M150 271.875C217.203125 271.875 271.875 217.203125 271.875 150S217.203125 28.125 150 28.125S28.125 82.796875 28.125 150S82.796875 271.875 150 271.875M150 296.875C68.890625 296.875 3.125 231.109375 3.125 150S68.890625 3.125 150 3.125S296.875 68.890625 296.875 150S231.109375 296.875 150 296.875H150zM150 249.09375C137.0625 249.09375 126.5625 238.59375 126.5625 225.65625S137.0625 202.21875 150 202.21875S173.4375 212.71875 173.4375 225.65625S162.9375 249.09375 150 249.09375H150zM135.984375 186.328125H164.015625A7.859375 7.859375 0 0 0 171.875 178.46875V58.765625A7.859375 7.859375 0 0 0 164.015625 50.90625H135.984375A7.859375 7.859375 0 0 0 128.125 58.765625V178.46875A7.859375 7.859375 0 0 0 135.984375 186.328125z" />
    <glyph glyph-name="kuoth"
      unicode="&#xF133;"
      horiz-adv-x="300" d="M150 271.875C217.203125 271.875 271.875 217.203125 271.875 150S217.203125 28.125 150 28.125S28.125 82.796875 28.125 150S82.796875 271.875 150 271.875M150 296.875C68.890625 296.875 3.125 231.109375 3.125 150S68.890625 3.125 150 3.125S296.875 68.890625 296.875 150S231.109375 296.875 150 296.875H150zM164.1875 175.921875H229.5625000000001V159.140625H165.5C169.078125 149.234375 173.296875 140.359375 178.15625 132.515625C184.71875 121.859375 193.6875 112.359375 205.046875 104.046875C211.546875 99.25 220.6562500000001 94.140625 232.3750000000001 88.75V71.875C214.859375 78.140625 200.65625 84.765625 189.75 91.734375C176.5156250000001 100.171875 165.875 109.984375 157.84375 121.171875C156.2031250000001 123.453125 153.890625 127.03125 150.90625 131.890625C144.46875 121.515625 135.703125 111.59375 124.625 102.09375C111.09375 90.4375 92.078125 80.359375 67.59375 71.859375V88.734375C82.765625 96 94.453125 103.34375 102.65625 110.796875C113.84375 120.9375 122.578125 132.265625 128.84375 144.8125C131.0625 149.265625 132.65625 154.046875 133.5937500000001 159.140625H71.109375V175.921875H135.3437500000001C135.4062500000001 177.203125 135.4375000000001 178.734375 135.4375000000001 180.484375V211.328125H78.2343750000001V228.1093750000001H221.734375V211.328125H164.265625V180.484375C164.265625 178.90625 164.2343750000001 177.3750000000001 164.171875 175.921875z" />
    <glyph glyph-name="layers"
      unicode="&#xF134;"
      horiz-adv-x="300" d="M144.859375 68.3125L59.859375 105.53125L15.515625 86.109375C5.25 81.609375 5.25 68.453125 15.515625 63.953125L143.1875 8.0468749999999C146.96875 6.3906249999999 151.375 6.3906249999999 155.15625 8.0468749999999L282.828125 63.953125C293.09375 68.453125 293.09375 81.609375 282.828125 86.109375L240.15625 104.796875L156.828125 68.3125C153.046875 66.65625 148.640625 66.65625 144.859375 68.3125zM284.484375 161.078125L240.984375 180.125L156.828125 143.265625C153.046875 141.609375 148.640625 141.609375 144.859375 143.265625L60.703125 180.125L17.203125 161.078125C6.9375 156.578125 6.9375 143.421875 17.203125 138.921875L59.875 120.234375L144.875 83.015625C148.65625 81.359375 153.0625 81.359375 156.84375 83.015625L240.171875 119.5L284.515625 138.921875C294.78125 143.421875 294.78125 156.578125 284.515625 161.078125zM144.859375 157.96875C148.640625 156.3125 153.046875 156.3125 156.828125 157.96875L240.984375 194.828125L284.484375 213.875C294.75 218.375 294.75 231.53125 284.484375 236.03125L156.828125 291.9375C153.046875 293.59375 148.640625 293.59375 144.859375 291.9375L17.1875 236.03125C6.921875 231.53125 6.921875 218.375 17.1875 213.875L60.6875 194.828125L144.84375 157.96875z" />
    <glyph glyph-name="left"
      unicode="&#xF135;"
      horiz-adv-x="300" d="M262.78125 281L139.953125 151.25C137.84375 149.015625 137.875 145.53125 140.03125 143.34375L261.953125 19.0781249999999C265.5 15.4687499999999 262.9375 9.390625 257.890625 9.390625H171.171875C169.640625 9.390625 168.1875 9.9999999999999 167.109375 11.078125L37.296875 142.515625C35.140625 144.703125 35.09375 148.1875 37.203125 150.421875L167.109375 288.828125C168.1875 289.96875 169.6875 290.625 171.265625 290.625H258.640625C263.640625 290.625 266.21875 284.640625 262.78125 281z" />
    <glyph glyph-name="lifebuoy"
      unicode="&#xF136;"
      horiz-adv-x="300" d="M261.953125 245.0625L211.90625 195.015625C221.109375 182.375 226.546875 166.828125 226.546875 150S221.359375 118.359375 212.546875 105.890625L262.65625 55.78125C284 81.28125 296.859375 114.140625 296.859375 150S283.71875 219.4375 261.9375 245.0625zM105.890625 212.5625C118.359375 221.375 133.5625 226.5625 150 226.5625S181.640625 221.375 194.109375 212.5625L244.2187500000001 262.671875C218.703125 284.015625 185.859375 296.875 150 296.875S81.296875 284.015625 55.78125 262.671875L105.890625 212.5625zM87.4375 105.890625C78.625 118.359375 73.4375 133.5625 73.4375 150S78.875 182.375 88.078125 195.015625L38.046875 245.0625C16.265625 219.4375 3.125 186.25 3.125 150S15.984375 81.296875 37.328125 55.78125L87.4375 105.890625zM195.015625 88.078125C182.375 78.875 166.828125 73.4375 150 73.4375S117.625 78.875 104.984375 88.078125L54.9375 38.03125C80.5625 16.25 113.734375 3.109375 150 3.109375S219.4375 16.25 245.0625 38.03125L195.015625 88.078125z" />
    <glyph glyph-name="light"
      unicode="&#xF137;"
      horiz-adv-x="300" d="M150 213.359375C150.875 213.359375 151.765625 213.34375 152.640625 213.296875C180.859375 212 203.84375 189 204.953125 160.921875C205.75 140.96875 195.5625 122.15625 178.359375 111.84375C168.46875 105.90625 162.328125 95.09375 162.328125 83.609375V82.78125H137.640625V83.625C137.640625 95.109375 131.5 105.921875 121.625 111.84375C104.9375 121.84375 94.96875 139.359375 94.96875 158.703125C94.96875 188.84375 119.65625 213.375 149.984375 213.375H149.984375M149.984375 238.375C105.796875 238.375 69.96875 202.703125 69.96875 158.703125C69.96875 129.703125 85.515625 104.3437499999999 108.765625 90.40625C111.15625 88.96875 112.640625 86.421875 112.640625 83.625V63.203125C112.640625 60.203125 115.078125 57.78125 118.078125 57.78125H181.875C184.875 57.78125 187.3125 60.203125 187.3125 63.203125V83.625C187.3125 86.421875 188.8125 88.984375 191.21875 90.421875C215.3125 104.875 231.125 131.609375 229.921875 161.9375C228.2968750000001 202.953125 194.953125 236.390625 153.765625 238.296875C152.484375 238.359375 151.234375 238.390625 149.96875 238.390625H149.96875zM121.109375 50.3125H178.90625A9.109375 9.109375 0 0 0 188.015625 41.2031249999999V41.2031249999999A9.109375 9.109375 0 0 0 178.90625 32.0937499999999H121.109375A9.109375 9.109375 0 0 0 112 41.2031249999999V41.2031249999999A9.109375 9.109375 0 0 0 121.109375 50.3125zM128.4375 25.921875H171.5625A9.109375 9.109375 0 0 0 180.671875 16.8125V16.8125A9.109375 9.109375 0 0 0 171.5625 7.7031249999999H128.4375A9.109375 9.109375 0 0 0 119.328125 16.8125V16.8125A9.109375 9.109375 0 0 0 128.4375 25.921875zM72.078125 103.71875C74.84375 103.296875 77.453125 101.828125 79.25 99.390625C82.84375 94.5312499999999 81.8125 87.6875 76.9375 84.09375L55.140625 68C50.28125 64.4062499999999 43.4375 65.453125 39.84375 70.3124999999999S37.28125 82.015625 42.15625 85.6093749999999L63.953125 101.7031249999999C66.390625 103.4999999999999 69.3125 104.1406249999999 72.078125 103.7187499999999zM56.578125 170.96875C58.328125 168.78125 59.234375 165.921875 58.890625 162.921875C58.21875 156.921875 52.796875 152.59375 46.796875 153.28125L19.875 156.3125C13.875 156.984375 9.5625 162.40625 10.234375 168.40625C10.90625 174.40625 16.328125 178.734375 22.328125 178.046875L49.25 175.015625C52.25 174.671875 54.828125 173.15625 56.578125 170.96875zM90.953125 230.8125C90.75 228.015625 89.46875 225.3125 87.1875 223.34375C82.609375 219.40625 75.703125 219.921875 71.765625 224.5L54.09375 245.046875C50.15625 249.625 50.671875 256.53125 55.25 260.46875S66.734375 263.890625 70.671875 259.3125L88.34375 238.765625C90.3125 236.46875 91.171875 233.609375 90.953125 230.8125zM156.859375 251.296875C154.8125 249.390625 152.03125 248.265625 149.015625 248.390625C142.984375 248.609375 138.265625 253.6875 138.5 259.734375L139.515625 286.8125C139.734375 292.84375 144.8125 297.5625 150.859375 297.328125S161.609375 292.03125 161.375 285.984375L160.359375 258.90625C160.25 255.890625 158.921875 253.203125 156.875 251.296875zM219.09375 221.484375C216.296875 221.484375 213.5 222.546875 211.359375 224.6875C207.09375 228.953125 207.09375 235.890625 211.359375 240.15625L230.515625 259.3125C234.78125 263.578125 241.71875 263.578125 245.984375 259.3125S250.25 248.109375 245.984375 243.84375L226.8281250000001 224.6875C224.6875 222.546875 221.890625 221.484375 219.0937500000001 221.484375zM244.453125 157.296875C242.40625 159.203125 241.078125 161.890625 240.96875 164.90625C240.7500000000001 170.9375 245.453125 176.015625 251.484375 176.25L278.5625 177.265625C284.59375 177.484375 289.671875 172.78125 289.90625 166.75S285.421875 155.640625 279.390625 155.40625L252.3125 154.390625C249.296875 154.28125 246.5156249999999 155.40625 244.4687499999999 157.296875zM219.375 93C219.171875 95.796875 220.015625 98.65625 221.984375 100.953125C225.921875 105.53125 232.828125 106.046875 237.40625 102.109375L257.953125 84.4375C262.53125 80.5 263.046875 73.59375 259.109375 69.015625S248.2656250000001 63.921875 243.6875 67.859375L223.140625 85.53125C220.84375 87.5 219.578125 90.21875 219.375 93z" />
    <glyph glyph-name="link"
      unicode="&#xF138;"
      horiz-adv-x="300" d="M134.375 77.34375C134.375 73.03125 130.875 69.53125 126.5625 69.53125H86.546875C40.546875 69.53125 3.125 105.625 3.125 150S40.546875 230.46875 86.546875 230.46875H126.5625C130.875 230.46875 134.375 226.96875 134.375 222.65625V202.34375C134.375 198.03125 130.875 194.53125 126.5625 194.53125H86.546875C60.359375 194.53125 39.0625 174.546875 39.0625 150S60.359375 105.46875 86.546875 105.46875H126.5625C130.875 105.46875 134.375 101.96875 134.375 97.65625V77.34375zM213.453125 69.53125H173.4375C169.125 69.53125 165.625 73.03125 165.625 77.34375V97.65625C165.625 101.96875 169.125 105.46875 173.4375 105.46875H213.453125C239.640625 105.46875 260.9375 125.453125 260.9375 150S239.640625 194.53125 213.453125 194.53125H173.4375C169.125 194.53125 165.625 198.03125 165.625 202.34375V222.65625C165.625 226.96875 169.125 230.46875 173.4375 230.46875H213.453125C259.453125 230.46875 296.875 194.375 296.875 150S259.453125 69.53125 213.453125 69.53125zM101.5625 168.75H198.4375A7.8125 7.8125 0 0 0 206.25 160.9375V140.625A7.8125 7.8125 0 0 0 198.4375 132.8125H101.5625A7.8125 7.8125 0 0 0 93.75 140.625V160.9375A7.8125 7.8125 0 0 0 101.5625 168.75z" />
    <glyph glyph-name="list"
      unicode="&#xF139;"
      horiz-adv-x="300" d="M21.875 179.6875H278.125A9.375 9.375 0 0 0 287.5 170.3125V129.6875A9.375 9.375 0 0 0 278.125 120.3125H21.875A9.375 9.375 0 0 0 12.5 129.6875V170.3125A9.375 9.375 0 0 0 21.875 179.6875zM21.875 88.28125H278.125A9.375 9.375 0 0 0 287.5 78.90625V38.28125A9.375 9.375 0 0 0 278.125 28.90625H21.875A9.375 9.375 0 0 0 12.5 38.28125V78.90625A9.375 9.375 0 0 0 21.875 88.28125zM21.875 271.09375H278.125A9.375 9.375 0 0 0 287.5 261.71875V221.09375A9.375 9.375 0 0 0 278.125 211.71875H21.875A9.375 9.375 0 0 0 12.5 221.09375V261.71875A9.375 9.375 0 0 0 21.875 271.09375z" />
    <glyph glyph-name="list2"
      unicode="&#xF13A;"
      horiz-adv-x="300" d="M106.25 179.6875H281.25A9.375 9.375 0 0 0 290.625 170.3125V129.6875A9.375 9.375 0 0 0 281.25 120.3125H106.25A9.375 9.375 0 0 0 96.875 129.6875V170.3125A9.375 9.375 0 0 0 106.25 179.6875zM106.25 88.28125H281.25A9.375 9.375 0 0 0 290.625 78.90625V38.28125A9.375 9.375 0 0 0 281.25 28.90625H106.25A9.375 9.375 0 0 0 96.875 38.28125V78.90625A9.375 9.375 0 0 0 106.25 88.28125zM106.25 271.09375H281.25A9.375 9.375 0 0 0 290.625 261.71875V221.09375A9.375 9.375 0 0 0 281.25 211.71875H106.25A9.375 9.375 0 0 0 96.875 221.09375V261.71875A9.375 9.375 0 0 0 106.25 271.09375zM18.75 179.6875H59.375A9.375 9.375 0 0 0 68.75 170.3125V129.6875A9.375 9.375 0 0 0 59.375 120.3125H18.75A9.375 9.375 0 0 0 9.375 129.6875V170.3125A9.375 9.375 0 0 0 18.75 179.6875zM18.75 88.28125H59.375A9.375 9.375 0 0 0 68.75 78.90625V38.28125A9.375 9.375 0 0 0 59.375 28.90625H18.75A9.375 9.375 0 0 0 9.375 38.28125V78.90625A9.375 9.375 0 0 0 18.75 88.28125zM18.75 271.09375H59.375A9.375 9.375 0 0 0 68.75 261.71875V221.09375A9.375 9.375 0 0 0 59.375 211.71875H18.75A9.375 9.375 0 0 0 9.375 221.09375V261.71875A9.375 9.375 0 0 0 18.75 271.09375z" />
    <glyph glyph-name="location"
      unicode="&#xF13B;"
      horiz-adv-x="300" d="M103.125 150A46.875 46.875 0 0 1 196.875 150A46.875 46.875 0 0 1 103.125 150M150 39.84375C89.265625 39.84375 39.84375 89.265625 39.84375 150S89.265625 260.15625 150 260.15625S260.15625 210.734375 260.15625 150S210.734375 39.84375 150 39.84375zM150 235.15625C103.046875 235.15625 64.84375 196.953125 64.84375 150S103.046875 64.84375 150 64.84375S235.15625 103.046875 235.15625 150S196.953125 235.15625 150 235.15625zM137.5 294.53125H162.5V247.65625H137.5V294.53125zM247.65625 162.5H294.53125V137.5H247.65625V162.5zM5.46875 162.5H52.34375V137.5H5.46875V162.5zM137.5 52.34375H162.5V5.46875H137.5V52.34375z" />
    <glyph glyph-name="login"
      unicode="&#xF13C;"
      horiz-adv-x="300" d="M183.609375 6.875H30.265625C16.15625 6.875 4.6875 18.9375 4.6875 33.765625V266.234375C4.6875 281.0625 16.15625 293.125 30.265625 293.125H183.609375C197.71875 293.125 209.1875 281.0625 209.1875 266.234375V246.296875C209.1875 239.390625 203.59375 233.796875 196.6875 233.796875S184.1875 239.390625 184.1875 246.296875V266.234375C184.1875 267.3125 183.71875 267.953125 183.484375 268.125H30.390625C30.15625 267.9375 29.6875 267.3125 29.6875 266.234375V33.765625C29.6875 32.6875 30.15625 32.0468750000001 30.390625 31.875H183.484375C183.71875 32.0625 184.1875 32.6875 184.1875 33.765625V55.640625C184.1875 62.546875 189.78125 68.140625 196.6875 68.140625S209.1875 62.546875 209.1875 55.640625V33.765625C209.1875 18.9375 197.71875 6.875 183.609375 6.875zM294.203125 177.953125V121.75C294.203125 117.421875 290.6875 113.921875 286.359375 113.921875H203.84375V87.78125C203.84375 82.359375 193.6875 79.296875 189.0625 82.640625L103.90625 143.96875C99.296875 147.28125 99.296875 152.71875 103.90625 156.03125L189.0625 217.359375C193.6875 220.703125 203.84375 217.640625 203.84375 212.21875V185.796875H286.359375C290.6875 185.796875 294.203125 182.28125 294.203125 177.953125z" />
    <glyph glyph-name="login2"
      unicode="&#xF13D;"
      horiz-adv-x="300" d="M200.796875 6.875H30.265625C16.15625 6.875 4.6875 18.9375 4.6875 33.765625V266.234375C4.6875 281.0625 16.15625 293.125 30.265625 293.125H200.796875C214.90625 293.125 226.375 281.0625 226.375 266.234375V246.296875C226.375 239.390625 220.78125 233.796875 213.875 233.796875S201.375 239.390625 201.375 246.296875V266.234375C201.375 267.3125 200.90625 267.953125 200.671875 268.125H30.390625C30.15625 267.9375 29.6875 267.3125 29.6875 266.234375V33.765625C29.6875 32.6875 30.15625 32.0468750000001 30.390625 31.875H200.671875C200.90625 32.0625 201.375 32.6875 201.375 33.765625V55.640625C201.375 62.546875 206.96875 68.140625 213.875 68.140625S226.375 62.546875 226.375 55.640625V33.765625C226.375 18.9375 214.90625 6.875 200.796875 6.875zM284.78125 177.953125V121.75C284.78125 117.421875 281.265625 113.921875 276.9375 113.921875H219.25V87.78125C219.25 82.359375 211.875 79.296875 208.515625 82.640625L146.75 143.96875C143.40625 147.28125 143.40625 152.71875 146.75 156.03125L208.515625 217.359375C211.875 220.703125 219.25 217.640625 219.25 212.21875V185.796875H276.9375C281.2656250000001 185.796875 284.7812500000001 182.28125 284.7812500000001 177.953125zM107.75 46.96875H51.640625C46.421875 46.96875 42.203125 50.921875 42.203125 55.78125V238.140625C42.203125 244.375 48.953125 248.640625 55.15625 246.328125L111.265625 212.234375C114.84375 210.890625 117.203125 207.65625 117.203125 204.046875V55.78125C117.203125 50.90625 112.96875 46.96875 107.765625 46.96875z" />
    <glyph glyph-name="logo"
      unicode="&#xF13E;"
      horiz-adv-x="300" d="M102.0625 296.875L102.0625 247.40625L41.171875 247.40625L41.171875 296.875L3.125 296.875L3.125 159.890625L41.171875 159.890625L41.171875 209.359375L102.0625 209.359375L102.0625 159.890625L140.109375 159.890625L140.109375 296.875L102.0625 296.875zM296.875 194.046875V296.875H159.890625V194.046875H225.4687500000001V179.359375H205.328125C203.375 179.359375 201.7968750000001 177.78125 201.7968750000001 175.828125V163.421875C201.7968750000001 161.46875 203.375 159.890625 205.328125 159.890625H251.4375000000001C253.3906250000001 159.890625 254.96875 161.46875 254.96875 163.421875V175.828125C254.96875 177.78125 253.3906250000001 179.359375 251.4375000000001 179.359375H231.2968750000001V194.046875H296.8750000000001zM197.9375 223.828125V265.71875H258.8125V223.828125H197.9375zM296.875 102.0625L296.875 140.109375L197.9375 140.109375L171.3125 140.109375L159.890625 140.109375L159.890625 3.125L171.3125 3.125L197.9375 3.125L296.875 3.125L296.875 41.171875L197.9375 41.171875L197.9375 52.59375L296.875 52.59375L296.875 90.640625L197.9375 90.640625L197.9375 102.0625L296.875 102.0625zM102.0625 140.109375L102.0625 71.03125L41.171875 140.109375L3.125 140.109375L3.125 3.125L41.171875 3.125L41.171875 72.203125L102.0625 3.125L102.0625 3.125L140.109375 3.125L140.109375 140.109375L102.0625 140.109375z" />
    <glyph glyph-name="logout"
      unicode="&#xF13F;"
      horiz-adv-x="300" d="M183.609375 6.875H30.265625C16.15625 6.875 4.6875 18.9375 4.6875 33.765625V266.234375C4.6875 281.0625 16.15625 293.125 30.265625 293.125H183.609375C197.71875 293.125 209.1875 281.0625 209.1875 266.234375V246.296875C209.1875 239.390625 203.59375 233.796875 196.6875 233.796875S184.1875 239.390625 184.1875 246.296875V266.234375C184.1875 267.3125 183.71875 267.953125 183.484375 268.125H30.390625C30.15625 267.9375 29.6875 267.3125 29.6875 266.234375V33.765625C29.6875 32.6875 30.15625 32.0468750000001 30.390625 31.875H183.484375C183.71875 32.0625 184.1875 32.6875 184.1875 33.765625V55.640625C184.1875 62.546875 189.78125 68.140625 196.6875 68.140625S209.1875 62.546875 209.1875 55.640625V33.765625C209.1875 18.9375 197.71875 6.875 183.609375 6.875zM292.015625 143.96875L206.859375 82.640625C202.234375 79.296875 192.078125 82.359375 192.078125 87.78125V113.921875H109.5625C105.234375 113.921875 101.71875 117.421875 101.71875 121.75V177.953125C101.71875 182.28125 105.234375 185.796875 109.5625 185.796875H192.078125V212.21875C192.078125 217.640625 202.234375 220.703125 206.859375 217.359375L292.015625 156.03125C296.625 152.71875 296.625 147.28125 292.015625 143.96875z" />
    <glyph glyph-name="logout2"
      unicode="&#xF140;"
      horiz-adv-x="300" d="M200.796875 6.875H30.265625C16.15625 6.875 4.6875 18.9375 4.6875 33.765625V266.234375C4.6875 281.0625 16.15625 293.125 30.265625 293.125H200.796875C214.90625 293.125 226.375 281.0625 226.375 266.234375V246.296875C226.375 239.390625 220.78125 233.796875 213.875 233.796875S201.375 239.390625 201.375 246.296875V266.234375C201.375 267.3125 200.90625 267.953125 200.671875 268.125H30.390625C30.15625 267.9375 29.6875 267.3125 29.6875 266.234375V33.765625C29.6875 32.6875 30.15625 32.0468750000001 30.390625 31.875H200.671875C200.90625 32.0625 201.375 32.6875 201.375 33.765625V55.640625C201.375 62.546875 206.96875 68.140625 213.875 68.140625S226.375 62.546875 226.375 55.640625V33.765625C226.375 18.9375 214.90625 6.875 200.796875 6.875zM283.546875 143.96875L221.78125 82.640625C218.421875 79.296875 211.046875 82.359375 211.046875 87.78125V113.921875H153.359375C149.03125 113.921875 145.515625 117.421875 145.515625 121.75V177.953125C145.515625 182.28125 149.03125 185.796875 153.359375 185.796875H211.046875V212.21875C211.046875 217.640625 218.421875 220.703125 221.78125 217.359375L283.546875 156.03125C286.890625 152.71875 286.890625 147.28125 283.546875 143.96875zM107.75 46.96875H51.640625C46.421875 46.96875 42.203125 50.921875 42.203125 55.78125V238.140625C42.203125 244.375 48.953125 248.640625 55.15625 246.328125L111.265625 212.234375C114.84375 210.890625 117.203125 207.65625 117.203125 204.046875V55.78125C117.203125 50.90625 112.96875 46.96875 107.765625 46.96875z" />
    <glyph glyph-name="map"
      unicode="&#xF141;"
      horiz-adv-x="300" d="M88.03125 37.703125L18.890625 6.953125C13.640625 4.609375 7.8125 8.65625 7.8125 14.65625V253.765625C7.8125 257.125 9.734375 260.15625 12.671875 261.46875L81.8125 292.203125C87.0625 294.546875 92.890625 290.5 92.890625 284.5V45.40625C92.890625 42.046875 90.96875 39.015625 88.03125 37.703125zM181.921875 12.453125L112.78125 37.90625C109.59375 39.078125 107.453125 42.25 107.453125 45.796875V285.34375C107.453125 291.109375 112.875 295.140625 118.0625 293.234375L187.203125 267.78125C190.390625 266.609375 192.53125 263.4375 192.53125 259.890625V20.34375C192.53125 14.578125 187.109375 10.5468749999999 181.921875 12.4531249999999zM286.859375 37.90625L217.71875 12.453125C212.53125 10.546875 207.109375 14.578125 207.109375 20.34375V259.875C207.109375 263.421875 209.25 266.59375 212.4375 267.765625L281.578125 293.21875C286.765625 295.125 292.1875 291.09375 292.1875 285.328125V45.78125C292.1875 42.234375 290.046875 39.0625 286.859375 37.890625z" />
    </font>
</defs>
</svg>
